<svg width="602" height="116" viewBox="0 0 602 116" fill="none" xmlns="http://www.w3.org/2000/svg">
<path d="M73.632 59.192C73.632 65.848 72.096 71.928 69.024 77.432C66.016 82.936 61.472 87.48 55.392 91.064C49.376 94.648 42.208 96.44 33.888 96.44C25.632 96.44 18.72 94.04 13.152 89.24C7.584 84.44 4.8 78.488 4.8 71.384C4.8 66.2 6.432 61.784 9.696 58.136C13.024 54.424 17.088 52.12 21.888 51.224C21.888 45.784 21.76 39.32 21.504 31.832C18.432 31.832 16.896 30.744 16.896 28.568C16.896 26.392 19.04 24.76 23.328 23.672C27.616 22.584 32.384 22.04 37.632 22.04C42.88 22.04 47.904 23.096 52.704 25.208C57.504 27.32 61.376 30.168 64.32 33.752C70.528 41.112 73.632 49.592 73.632 59.192ZM21.6 74.36L21.984 62.552V57.944C19.04 58.776 16.672 60.44 14.88 62.936C13.152 65.368 12.288 68.184 12.288 71.384C12.288 76.376 14.304 80.696 18.336 84.344C22.496 87.928 27.808 89.72 34.272 89.72C43.168 89.72 50.624 86.808 56.64 80.984C62.72 75.096 65.76 68.152 65.76 60.152C65.76 52.152 63.392 45.016 58.656 38.744C56.288 35.672 53.184 33.24 49.344 31.448C45.504 29.656 41.248 28.76 36.576 28.76C34.336 28.76 31.936 29.048 29.376 29.624L28.896 50.744C33.184 51 37.056 52.344 40.512 54.776C43.968 57.144 45.696 59.64 45.696 62.264C45.696 63.8 45.056 64.792 43.776 65.24C43.456 65.432 42.976 65.528 42.336 65.528C41.696 65.528 41.088 65.304 40.512 64.856C39.936 64.344 39.104 63.48 38.016 62.264C36.928 61.048 36.096 60.184 35.52 59.672C33.344 58.008 31.104 57.176 28.8 57.176L28.896 64.088L29.184 69.848C29.312 71.512 29.376 72.696 29.376 73.4C29.376 74.04 29.344 74.712 29.28 75.416C29.28 76.12 28.928 76.92 28.224 77.816C27.52 78.648 26.784 79.064 26.016 79.064C25.312 79.064 24.672 78.936 24.096 78.68C22.432 77.848 21.6 76.408 21.6 74.36ZM92.9513 95C91.7993 95 90.8713 94.68 90.1673 94.04C89.5273 93.336 89.2073 92.408 89.2073 91.256V46.232C89.2073 45.08 89.5273 44.184 90.1673 43.544C90.8713 42.84 91.7993 42.488 92.9513 42.488C94.0393 42.488 94.9033 42.84 95.5433 43.544C96.2473 44.184 96.5993 45.08 96.5993 46.232V91.256C96.5993 92.408 96.2473 93.336 95.5433 94.04C94.9033 94.68 94.0393 95 92.9513 95ZM92.8553 32.504C91.4473 32.504 90.2313 31.992 89.2073 30.968C88.1833 29.944 87.6713 28.696 87.6713 27.224C87.6713 25.624 88.1833 24.376 89.2073 23.48C90.2953 22.52 91.5433 22.04 92.9513 22.04C94.2953 22.04 95.4793 22.52 96.5033 23.48C97.5913 24.376 98.1353 25.624 98.1353 27.224C98.1353 28.696 97.6233 29.944 96.5993 30.968C95.5753 31.992 94.3273 32.504 92.8553 32.504ZM138.557 95.48C133.501 95.48 129.021 94.36 125.117 92.12C121.213 89.816 118.141 86.648 115.901 82.616C113.725 78.584 112.637 73.976 112.637 68.792C112.637 63.544 113.789 58.904 116.093 54.872C118.397 50.84 121.565 47.704 125.597 45.464C129.629 43.16 134.205 42.008 139.325 42.008C144.509 42.008 149.085 43.16 153.053 45.464C157.085 47.704 160.221 50.84 162.461 54.872C164.765 58.904 165.949 63.544 166.013 68.792L161.693 71.096C161.693 75.832 160.701 80.056 158.717 83.768C156.733 87.416 153.981 90.296 150.461 92.408C147.005 94.456 143.037 95.48 138.557 95.48ZM139.517 115.736C134.461 115.736 130.013 114.776 126.173 112.856C122.333 111 119.165 108.44 116.669 105.176C115.965 104.408 115.645 103.576 115.709 102.68C115.837 101.784 116.317 101.048 117.149 100.472C117.981 99.896 118.909 99.704 119.933 99.896C120.957 100.088 121.757 100.568 122.333 101.336C124.189 103.64 126.557 105.496 129.437 106.904C132.381 108.312 135.773 109.016 139.613 109.016C143.197 109.016 146.429 108.152 149.309 106.424C152.189 104.696 154.461 102.264 156.125 99.128C157.853 95.992 158.717 92.312 158.717 88.088V73.496L161.501 67.928L166.013 68.792V88.376C166.013 93.56 164.861 98.2 162.557 102.296C160.253 106.456 157.117 109.72 153.149 112.088C149.181 114.52 144.637 115.736 139.517 115.736ZM139.325 88.76C143.101 88.76 146.429 87.928 149.309 86.264C152.253 84.536 154.557 82.168 156.221 79.16C157.885 76.152 158.717 72.696 158.717 68.792C158.717 64.888 157.885 61.432 156.221 58.424C154.557 55.352 152.253 52.984 149.309 51.32C146.429 49.592 143.101 48.728 139.325 48.728C135.549 48.728 132.189 49.592 129.245 51.32C126.301 52.984 123.997 55.352 122.333 58.424C120.669 61.432 119.837 64.888 119.837 68.792C119.837 72.696 120.669 76.152 122.333 79.16C123.997 82.168 126.301 84.536 129.245 86.264C132.189 87.928 135.549 88.76 139.325 88.76ZM204.198 95.48C199.014 95.48 194.406 94.36 190.374 92.12C186.406 89.816 183.27 86.648 180.966 82.616C178.726 78.584 177.606 73.976 177.606 68.792C177.606 63.544 178.662 58.936 180.774 54.968C182.95 50.936 185.926 47.768 189.702 45.464C193.478 43.16 197.83 42.008 202.758 42.008C207.622 42.008 211.846 43.128 215.43 45.368C219.078 47.544 221.894 50.584 223.878 54.488C225.862 58.392 226.854 62.84 226.854 67.832C226.854 68.856 226.534 69.688 225.894 70.328C225.254 70.904 224.422 71.192 223.398 71.192H182.598V65.048H224.166L220.038 68.024C220.102 64.312 219.43 60.984 218.022 58.04C216.614 55.096 214.598 52.792 211.974 51.128C209.414 49.464 206.342 48.632 202.758 48.632C199.11 48.632 195.91 49.496 193.158 51.224C190.406 52.952 188.262 55.352 186.726 58.424C185.254 61.432 184.518 64.888 184.518 68.792C184.518 72.696 185.35 76.152 187.014 79.16C188.742 82.168 191.078 84.536 194.022 86.264C196.966 87.992 200.358 88.856 204.198 88.856C206.502 88.856 208.806 88.472 211.11 87.704C213.478 86.872 215.366 85.848 216.774 84.632C217.478 84.056 218.278 83.768 219.174 83.768C220.07 83.704 220.838 83.928 221.478 84.44C222.31 85.208 222.726 86.04 222.726 86.936C222.79 87.832 222.438 88.6 221.67 89.24C219.558 91.032 216.87 92.536 213.606 93.752C210.342 94.904 207.206 95.48 204.198 95.48ZM257.695 95.48C253.919 95.48 250.175 94.84 246.463 93.56C242.751 92.28 239.743 90.36 237.439 87.8C236.735 87.032 236.447 86.168 236.575 85.208C236.703 84.248 237.183 83.416 238.015 82.712C238.911 82.072 239.839 81.816 240.799 81.944C241.759 82.072 242.559 82.488 243.199 83.192C244.735 84.984 246.751 86.36 249.247 87.32C251.807 88.28 254.623 88.76 257.695 88.76C262.431 88.76 265.855 87.96 267.967 86.36C270.079 84.696 271.167 82.712 271.231 80.408C271.231 78.104 270.143 76.216 267.967 74.744C265.791 73.208 262.207 72.024 257.215 71.192C250.751 70.168 246.015 68.376 243.007 65.816C239.999 63.256 238.495 60.216 238.495 56.696C238.495 53.432 239.359 50.712 241.087 48.536C242.815 46.36 245.119 44.728 247.999 43.64C250.879 42.552 254.047 42.008 257.503 42.008C261.791 42.008 265.471 42.744 268.543 44.216C271.679 45.688 274.207 47.672 276.127 50.168C276.767 51 277.023 51.864 276.895 52.76C276.767 53.656 276.255 54.392 275.359 54.968C274.591 55.416 273.695 55.576 272.671 55.448C271.711 55.256 270.879 54.776 270.175 54.008C268.575 52.152 266.719 50.808 264.607 49.976C262.495 49.08 260.063 48.632 257.311 48.632C253.791 48.632 250.975 49.368 248.863 50.84C246.751 52.248 245.695 54.04 245.695 56.216C245.695 57.688 246.079 58.968 246.847 60.056C247.679 61.144 249.055 62.104 250.975 62.936C252.959 63.768 255.711 64.472 259.231 65.048C264.031 65.816 267.807 66.968 270.559 68.504C273.375 69.976 275.359 71.736 276.511 73.784C277.727 75.768 278.335 77.944 278.335 80.312C278.335 83.32 277.439 85.976 275.647 88.28C273.919 90.52 271.487 92.28 268.351 93.56C265.279 94.84 261.727 95.48 257.695 95.48ZM311.653 95C308.261 95 305.221 94.2 302.533 92.6C299.909 91 297.829 88.824 296.293 86.072C294.757 83.256 293.989 80.056 293.989 76.472V29.528C293.989 28.44 294.309 27.544 294.949 26.84C295.653 26.136 296.549 25.784 297.637 25.784C298.725 25.784 299.621 26.136 300.325 26.84C301.029 27.544 301.381 28.44 301.381 29.528V76.472C301.381 79.736 302.341 82.424 304.261 84.536C306.181 86.584 308.645 87.608 311.653 87.608H314.245C315.269 87.608 316.101 87.96 316.741 88.664C317.381 89.368 317.701 90.264 317.701 91.352C317.701 92.44 317.317 93.336 316.549 94.04C315.781 94.68 314.821 95 313.669 95H311.653ZM287.749 50.84C286.789 50.84 285.989 50.552 285.349 49.976C284.709 49.336 284.389 48.568 284.389 47.672C284.389 46.712 284.709 45.944 285.349 45.368C285.989 44.728 286.789 44.408 287.749 44.408H312.229C313.189 44.408 313.989 44.728 314.629 45.368C315.269 45.944 315.589 46.712 315.589 47.672C315.589 48.568 315.269 49.336 314.629 49.976C313.989 50.552 313.189 50.84 312.229 50.84H287.749ZM343.462 49.592C348.134 47.352 352.486 46.232 356.518 46.232C360.55 46.232 363.398 47.032 365.062 48.632C366.982 50.04 367.942 51.8 367.942 53.912C367.942 55.576 367.398 57.048 366.31 58.328C363.942 60.888 360.262 62.168 355.27 62.168C353.222 62.168 350.95 61.72 348.454 60.824C345.958 59.864 343.814 58.712 342.022 57.368C336.582 61.08 333.862 66.104 333.862 72.44C333.862 76.728 335.75 80.696 339.526 84.344C343.302 87.928 348.422 89.72 354.886 89.72C361.414 89.72 366.438 88.344 369.958 85.592C373.478 82.84 375.718 81.464 376.678 81.464C378.47 81.464 379.366 82.296 379.366 83.96C379.366 85.368 378.342 87.032 376.294 88.952C374.246 90.872 371.27 92.6 367.366 94.136C363.526 95.672 359.558 96.44 355.462 96.44C346.438 96.44 339.27 94.072 333.958 89.336C328.774 84.536 326.182 79.192 326.182 73.304C326.182 64.728 329.926 57.976 337.414 53.048C333.894 49.464 332.134 44.952 332.134 39.512C332.134 34.072 334.278 29.72 338.566 26.456C342.918 23.192 347.814 21.56 353.254 21.56C358.694 21.56 363.462 22.584 367.558 24.632C371.654 26.616 373.702 28.824 373.702 31.256C373.702 32.792 373.062 33.816 371.782 34.328C371.398 34.392 370.822 34.424 370.054 34.424C369.35 34.424 368.262 33.944 366.79 32.984C362.63 29.848 358.438 28.28 354.214 28.28C350.054 28.28 346.598 29.272 343.846 31.256C340.774 33.176 339.238 36.152 339.238 40.184C339.238 44.152 340.646 47.288 343.462 49.592ZM348.358 53.432L347.302 53.912C349.542 55.576 352.358 56.408 355.75 56.408C359.142 56.408 360.838 55.608 360.838 54.008C360.838 52.664 359.27 51.992 356.134 51.992C352.998 51.992 350.406 52.472 348.358 53.432ZM413.432 95.48C408.504 95.48 404.088 94.328 400.184 92.024C396.28 89.656 393.176 86.456 390.872 82.424C388.632 78.392 387.512 73.848 387.512 68.792C387.512 63.672 388.664 59.096 390.968 55.064C393.336 51.032 396.536 47.864 400.568 45.56C404.6 43.192 409.144 42.008 414.2 42.008C419.256 42.008 423.768 43.192 427.736 45.56C431.768 47.864 434.936 51.032 437.24 55.064C439.608 59.096 440.824 63.672 440.888 68.792L437.912 71.096C437.912 75.704 436.824 79.864 434.648 83.576C432.536 87.224 429.624 90.136 425.912 92.312C422.264 94.424 418.104 95.48 413.432 95.48ZM414.2 88.76C417.912 88.76 421.208 87.896 424.088 86.168C427.032 84.44 429.336 82.072 431 79.064C432.728 75.992 433.592 72.568 433.592 68.792C433.592 64.952 432.728 61.528 431 58.52C429.336 55.512 427.032 53.144 424.088 51.416C421.208 49.624 417.912 48.728 414.2 48.728C410.552 48.728 407.256 49.624 404.312 51.416C401.368 53.144 399.032 55.512 397.304 58.52C395.576 61.528 394.712 64.952 394.712 68.792C394.712 72.568 395.576 75.992 397.304 79.064C399.032 82.072 401.368 84.44 404.312 86.168C407.256 87.896 410.552 88.76 414.2 88.76ZM437.144 95C436.056 95 435.16 94.68 434.456 94.04C433.752 93.336 433.4 92.44 433.4 91.352V74.936L435.224 67.352L440.888 68.792V91.352C440.888 92.44 440.536 93.336 439.832 94.04C439.128 94.68 438.232 95 437.144 95ZM473.601 95.48C469.825 95.48 466.081 94.84 462.369 93.56C458.657 92.28 455.649 90.36 453.345 87.8C452.641 87.032 452.353 86.168 452.481 85.208C452.609 84.248 453.089 83.416 453.921 82.712C454.817 82.072 455.745 81.816 456.705 81.944C457.665 82.072 458.465 82.488 459.105 83.192C460.641 84.984 462.657 86.36 465.153 87.32C467.713 88.28 470.529 88.76 473.601 88.76C478.337 88.76 481.761 87.96 483.873 86.36C485.985 84.696 487.073 82.712 487.137 80.408C487.137 78.104 486.049 76.216 483.873 74.744C481.697 73.208 478.113 72.024 473.121 71.192C466.657 70.168 461.921 68.376 458.913 65.816C455.905 63.256 454.401 60.216 454.401 56.696C454.401 53.432 455.265 50.712 456.993 48.536C458.721 46.36 461.025 44.728 463.905 43.64C466.785 42.552 469.953 42.008 473.409 42.008C477.697 42.008 481.377 42.744 484.449 44.216C487.585 45.688 490.113 47.672 492.033 50.168C492.673 51 492.929 51.864 492.801 52.76C492.673 53.656 492.161 54.392 491.265 54.968C490.497 55.416 489.601 55.576 488.577 55.448C487.617 55.256 486.785 54.776 486.081 54.008C484.481 52.152 482.625 50.808 480.513 49.976C478.401 49.08 475.969 48.632 473.217 48.632C469.697 48.632 466.881 49.368 464.769 50.84C462.657 52.248 461.601 54.04 461.601 56.216C461.601 57.688 461.985 58.968 462.753 60.056C463.585 61.144 464.961 62.104 466.881 62.936C468.865 63.768 471.617 64.472 475.137 65.048C479.937 65.816 483.713 66.968 486.465 68.504C489.281 69.976 491.265 71.736 492.417 73.784C493.633 75.768 494.241 77.944 494.241 80.312C494.241 83.32 493.345 85.976 491.553 88.28C489.825 90.52 487.393 92.28 484.257 93.56C481.185 94.84 477.633 95.48 473.601 95.48ZM530.823 95.48C525.639 95.48 521.031 94.36 516.999 92.12C513.031 89.816 509.895 86.648 507.591 82.616C505.351 78.584 504.231 73.976 504.231 68.792C504.231 63.544 505.287 58.936 507.399 54.968C509.575 50.936 512.551 47.768 516.327 45.464C520.103 43.16 524.455 42.008 529.383 42.008C534.247 42.008 538.471 43.128 542.055 45.368C545.703 47.544 548.519 50.584 550.503 54.488C552.487 58.392 553.479 62.84 553.479 67.832C553.479 68.856 553.159 69.688 552.519 70.328C551.879 70.904 551.047 71.192 550.023 71.192H509.223V65.048H550.791L546.663 68.024C546.727 64.312 546.055 60.984 544.647 58.04C543.239 55.096 541.223 52.792 538.599 51.128C536.039 49.464 532.967 48.632 529.383 48.632C525.735 48.632 522.535 49.496 519.783 51.224C517.031 52.952 514.887 55.352 513.351 58.424C511.879 61.432 511.143 64.888 511.143 68.792C511.143 72.696 511.975 76.152 513.639 79.16C515.367 82.168 517.703 84.536 520.647 86.264C523.591 87.992 526.983 88.856 530.823 88.856C533.127 88.856 535.431 88.472 537.735 87.704C540.103 86.872 541.991 85.848 543.399 84.632C544.103 84.056 544.903 83.768 545.799 83.768C546.695 83.704 547.463 83.928 548.103 84.44C548.935 85.208 549.351 86.04 549.351 86.936C549.415 87.832 549.063 88.6 548.295 89.24C546.183 91.032 543.495 92.536 540.231 93.752C536.967 94.904 533.831 95.48 530.823 95.48Z" fill="black"/>
</svg>
