<svg width="550" height="95" viewBox="0 0 550 95" fill="none" xmlns="http://www.w3.org/2000/svg">
<path d="M69.632 38.192C69.632 44.848 68.096 50.928 65.024 56.432C62.016 61.936 57.472 66.48 51.392 70.064C45.376 73.648 38.208 75.44 29.888 75.44C21.632 75.44 14.72 73.04 9.152 68.24C3.584 63.44 0.8 57.488 0.8 50.384C0.8 45.2 2.432 40.784 5.696 37.136C9.024 33.424 13.088 31.12 17.888 30.224C17.888 24.784 17.76 18.32 17.504 10.832C14.432 10.832 12.896 9.744 12.896 7.568C12.896 5.392 15.04 3.76 19.328 2.672C23.616 1.584 28.384 1.04 33.632 1.04C38.88 1.04 43.904 2.09599 48.704 4.20799C53.504 6.32 57.376 9.168 60.32 12.752C66.528 20.112 69.632 28.592 69.632 38.192ZM17.6 53.36L17.984 41.552V36.944C15.04 37.776 12.672 39.44 10.88 41.936C9.152 44.368 8.288 47.184 8.288 50.384C8.288 55.376 10.304 59.696 14.336 63.344C18.496 66.928 23.808 68.72 30.272 68.72C39.168 68.72 46.624 65.808 52.64 59.984C58.72 54.096 61.76 47.152 61.76 39.152C61.76 31.152 59.392 24.016 54.656 17.744C52.288 14.672 49.184 12.24 45.344 10.448C41.504 8.65599 37.248 7.75999 32.576 7.75999C30.336 7.75999 27.936 8.04799 25.376 8.62399L24.896 29.744C29.184 30 33.056 31.344 36.512 33.776C39.968 36.144 41.696 38.64 41.696 41.264C41.696 42.8 41.056 43.792 39.776 44.24C39.456 44.432 38.976 44.528 38.336 44.528C37.696 44.528 37.088 44.304 36.512 43.856C35.936 43.344 35.104 42.48 34.016 41.264C32.928 40.048 32.096 39.184 31.52 38.672C29.344 37.008 27.104 36.176 24.8 36.176L24.896 43.088L25.184 48.848C25.312 50.512 25.376 51.696 25.376 52.4C25.376 53.04 25.344 53.712 25.28 54.416C25.28 55.12 24.928 55.92 24.224 56.816C23.52 57.648 22.784 58.064 22.016 58.064C21.312 58.064 20.672 57.936 20.096 57.68C18.432 56.848 17.6 55.408 17.6 53.36ZM88.9513 74C87.7993 74 86.8713 73.68 86.1673 73.04C85.5273 72.336 85.2073 71.408 85.2073 70.256V25.232C85.2073 24.08 85.5273 23.184 86.1673 22.544C86.8713 21.84 87.7993 21.488 88.9513 21.488C90.0393 21.488 90.9033 21.84 91.5433 22.544C92.2473 23.184 92.5993 24.08 92.5993 25.232V70.256C92.5993 71.408 92.2473 72.336 91.5433 73.04C90.9033 73.68 90.0393 74 88.9513 74ZM88.8553 11.504C87.4473 11.504 86.2313 10.992 85.2073 9.96799C84.1833 8.944 83.6713 7.696 83.6713 6.224C83.6713 4.624 84.1833 3.376 85.2073 2.47999C86.2953 1.51999 87.5433 1.04 88.9513 1.04C90.2953 1.04 91.4793 1.51999 92.5033 2.47999C93.5913 3.376 94.1353 4.624 94.1353 6.224C94.1353 7.696 93.6233 8.944 92.5993 9.96799C91.5753 10.992 90.3273 11.504 88.8553 11.504ZM134.557 74.48C129.501 74.48 125.021 73.36 121.117 71.12C117.213 68.816 114.141 65.648 111.901 61.616C109.725 57.584 108.637 52.976 108.637 47.792C108.637 42.544 109.789 37.904 112.093 33.872C114.397 29.84 117.565 26.704 121.597 24.464C125.629 22.16 130.205 21.008 135.325 21.008C140.509 21.008 145.085 22.16 149.053 24.464C153.085 26.704 156.221 29.84 158.461 33.872C160.765 37.904 161.949 42.544 162.013 47.792L157.693 50.096C157.693 54.832 156.701 59.056 154.717 62.768C152.733 66.416 149.981 69.296 146.461 71.408C143.005 73.456 139.037 74.48 134.557 74.48ZM135.517 94.736C130.461 94.736 126.013 93.776 122.173 91.856C118.333 90 115.165 87.44 112.669 84.176C111.965 83.408 111.645 82.576 111.709 81.68C111.837 80.784 112.317 80.048 113.149 79.472C113.981 78.896 114.909 78.704 115.933 78.896C116.957 79.088 117.757 79.568 118.333 80.336C120.189 82.64 122.557 84.496 125.437 85.904C128.381 87.312 131.773 88.016 135.613 88.016C139.197 88.016 142.429 87.152 145.309 85.424C148.189 83.696 150.461 81.264 152.125 78.128C153.853 74.992 154.717 71.312 154.717 67.088V52.496L157.501 46.928L162.013 47.792V67.376C162.013 72.56 160.861 77.2 158.557 81.296C156.253 85.456 153.117 88.72 149.149 91.088C145.181 93.52 140.637 94.736 135.517 94.736ZM135.325 67.76C139.101 67.76 142.429 66.928 145.309 65.264C148.253 63.536 150.557 61.168 152.221 58.16C153.885 55.152 154.717 51.696 154.717 47.792C154.717 43.888 153.885 40.432 152.221 37.424C150.557 34.352 148.253 31.984 145.309 30.32C142.429 28.592 139.101 27.728 135.325 27.728C131.549 27.728 128.189 28.592 125.245 30.32C122.301 31.984 119.997 34.352 118.333 37.424C116.669 40.432 115.837 43.888 115.837 47.792C115.837 51.696 116.669 55.152 118.333 58.16C119.997 61.168 122.301 63.536 125.245 65.264C128.189 66.928 131.549 67.76 135.325 67.76ZM200.198 74.48C195.014 74.48 190.406 73.36 186.374 71.12C182.406 68.816 179.27 65.648 176.966 61.616C174.726 57.584 173.606 52.976 173.606 47.792C173.606 42.544 174.662 37.936 176.774 33.968C178.95 29.936 181.926 26.768 185.702 24.464C189.478 22.16 193.83 21.008 198.758 21.008C203.622 21.008 207.846 22.128 211.43 24.368C215.078 26.544 217.894 29.584 219.878 33.488C221.862 37.392 222.854 41.84 222.854 46.832C222.854 47.856 222.534 48.688 221.894 49.328C221.254 49.904 220.422 50.192 219.398 50.192H178.598V44.048H220.166L216.038 47.024C216.102 43.312 215.43 39.984 214.022 37.04C212.614 34.096 210.598 31.792 207.974 30.128C205.414 28.464 202.342 27.632 198.758 27.632C195.11 27.632 191.91 28.496 189.158 30.224C186.406 31.952 184.262 34.352 182.726 37.424C181.254 40.432 180.518 43.888 180.518 47.792C180.518 51.696 181.35 55.152 183.014 58.16C184.742 61.168 187.078 63.536 190.022 65.264C192.966 66.992 196.358 67.856 200.198 67.856C202.502 67.856 204.806 67.472 207.11 66.704C209.478 65.872 211.366 64.848 212.774 63.632C213.478 63.056 214.278 62.768 215.174 62.768C216.07 62.704 216.838 62.928 217.478 63.44C218.31 64.208 218.726 65.04 218.726 65.936C218.79 66.832 218.438 67.6 217.67 68.24C215.558 70.032 212.87 71.536 209.606 72.752C206.342 73.904 203.206 74.48 200.198 74.48ZM253.695 74.48C249.919 74.48 246.175 73.84 242.463 72.56C238.751 71.28 235.743 69.36 233.439 66.8C232.735 66.032 232.447 65.168 232.575 64.208C232.703 63.248 233.183 62.416 234.015 61.712C234.911 61.072 235.839 60.816 236.799 60.944C237.759 61.072 238.559 61.488 239.199 62.192C240.735 63.984 242.751 65.36 245.247 66.32C247.807 67.28 250.623 67.76 253.695 67.76C258.431 67.76 261.855 66.96 263.967 65.36C266.079 63.696 267.167 61.712 267.231 59.408C267.231 57.104 266.143 55.216 263.967 53.744C261.791 52.208 258.207 51.024 253.215 50.192C246.751 49.168 242.015 47.376 239.007 44.816C235.999 42.256 234.495 39.216 234.495 35.696C234.495 32.432 235.359 29.712 237.087 27.536C238.815 25.36 241.119 23.728 243.999 22.64C246.879 21.552 250.047 21.008 253.503 21.008C257.791 21.008 261.471 21.744 264.543 23.216C267.679 24.688 270.207 26.672 272.127 29.168C272.767 30 273.023 30.864 272.895 31.76C272.767 32.656 272.255 33.392 271.359 33.968C270.591 34.416 269.695 34.576 268.671 34.448C267.711 34.256 266.879 33.776 266.175 33.008C264.575 31.152 262.719 29.808 260.607 28.976C258.495 28.08 256.063 27.632 253.311 27.632C249.791 27.632 246.975 28.368 244.863 29.84C242.751 31.248 241.695 33.04 241.695 35.216C241.695 36.688 242.079 37.968 242.847 39.056C243.679 40.144 245.055 41.104 246.975 41.936C248.959 42.768 251.711 43.472 255.231 44.048C260.031 44.816 263.807 45.968 266.559 47.504C269.375 48.976 271.359 50.736 272.511 52.784C273.727 54.768 274.335 56.944 274.335 59.312C274.335 62.32 273.439 64.976 271.647 67.28C269.919 69.52 267.487 71.28 264.351 72.56C261.279 73.84 257.727 74.48 253.695 74.48ZM307.653 74C304.261 74 301.221 73.2 298.533 71.6C295.909 70 293.829 67.824 292.293 65.072C290.757 62.256 289.989 59.056 289.989 55.472V8.528C289.989 7.43999 290.309 6.54399 290.949 5.84C291.653 5.136 292.549 4.784 293.637 4.784C294.725 4.784 295.621 5.136 296.325 5.84C297.029 6.54399 297.381 7.43999 297.381 8.528V55.472C297.381 58.736 298.341 61.424 300.261 63.536C302.181 65.584 304.645 66.608 307.653 66.608H310.245C311.269 66.608 312.101 66.96 312.741 67.664C313.381 68.368 313.701 69.264 313.701 70.352C313.701 71.44 313.317 72.336 312.549 73.04C311.781 73.68 310.821 74 309.669 74H307.653ZM283.749 29.84C282.789 29.84 281.989 29.552 281.349 28.976C280.709 28.336 280.389 27.568 280.389 26.672C280.389 25.712 280.709 24.944 281.349 24.368C281.989 23.728 282.789 23.408 283.749 23.408H308.229C309.189 23.408 309.989 23.728 310.629 24.368C311.269 24.944 311.589 25.712 311.589 26.672C311.589 27.568 311.269 28.336 310.629 28.976C309.989 29.552 309.189 29.84 308.229 29.84H283.749ZM339.462 28.592C344.134 26.352 348.486 25.232 352.518 25.232C356.55 25.232 359.398 26.032 361.062 27.632C362.982 29.04 363.942 30.8 363.942 32.912C363.942 34.576 363.398 36.048 362.31 37.328C359.942 39.888 356.262 41.168 351.27 41.168C349.222 41.168 346.95 40.72 344.454 39.824C341.958 38.864 339.814 37.712 338.022 36.368C332.582 40.08 329.862 45.104 329.862 51.44C329.862 55.728 331.75 59.696 335.526 63.344C339.302 66.928 344.422 68.72 350.886 68.72C357.414 68.72 362.438 67.344 365.958 64.592C369.478 61.84 371.718 60.464 372.678 60.464C374.47 60.464 375.366 61.296 375.366 62.96C375.366 64.368 374.342 66.032 372.294 67.952C370.246 69.872 367.27 71.6 363.366 73.136C359.526 74.672 355.558 75.44 351.462 75.44C342.438 75.44 335.27 73.072 329.958 68.336C324.774 63.536 322.182 58.192 322.182 52.304C322.182 43.728 325.926 36.976 333.414 32.048C329.894 28.464 328.134 23.952 328.134 18.512C328.134 13.072 330.278 8.72 334.566 5.456C338.918 2.192 343.814 0.559996 349.254 0.559996C354.694 0.559996 359.462 1.584 363.558 3.632C367.654 5.616 369.702 7.824 369.702 10.256C369.702 11.792 369.062 12.816 367.782 13.328C367.398 13.392 366.822 13.424 366.054 13.424C365.35 13.424 364.262 12.944 362.79 11.984C358.63 8.848 354.438 7.27999 350.214 7.27999C346.054 7.27999 342.598 8.272 339.846 10.256C336.774 12.176 335.238 15.152 335.238 19.184C335.238 23.152 336.646 26.288 339.462 28.592ZM344.358 32.432L343.302 32.912C345.542 34.576 348.358 35.408 351.75 35.408C355.142 35.408 356.838 34.608 356.838 33.008C356.838 31.664 355.27 30.992 352.134 30.992C348.998 30.992 346.406 31.472 344.358 32.432ZM409.432 74.48C404.504 74.48 400.088 73.328 396.184 71.024C392.28 68.656 389.176 65.456 386.872 61.424C384.632 57.392 383.512 52.848 383.512 47.792C383.512 42.672 384.664 38.096 386.968 34.064C389.336 30.032 392.536 26.864 396.568 24.56C400.6 22.192 405.144 21.008 410.2 21.008C415.256 21.008 419.768 22.192 423.736 24.56C427.768 26.864 430.936 30.032 433.24 34.064C435.608 38.096 436.824 42.672 436.888 47.792L433.912 50.096C433.912 54.704 432.824 58.864 430.648 62.576C428.536 66.224 425.624 69.136 421.912 71.312C418.264 73.424 414.104 74.48 409.432 74.48ZM410.2 67.76C413.912 67.76 417.208 66.896 420.088 65.168C423.032 63.44 425.336 61.072 427 58.064C428.728 54.992 429.592 51.568 429.592 47.792C429.592 43.952 428.728 40.528 427 37.52C425.336 34.512 423.032 32.144 420.088 30.416C417.208 28.624 413.912 27.728 410.2 27.728C406.552 27.728 403.256 28.624 400.312 30.416C397.368 32.144 395.032 34.512 393.304 37.52C391.576 40.528 390.712 43.952 390.712 47.792C390.712 51.568 391.576 54.992 393.304 58.064C395.032 61.072 397.368 63.44 400.312 65.168C403.256 66.896 406.552 67.76 410.2 67.76ZM433.144 74C432.056 74 431.16 73.68 430.456 73.04C429.752 72.336 429.4 71.44 429.4 70.352V53.936L431.224 46.352L436.888 47.792V70.352C436.888 71.44 436.536 72.336 435.832 73.04C435.128 73.68 434.232 74 433.144 74ZM469.601 74.48C465.825 74.48 462.081 73.84 458.369 72.56C454.657 71.28 451.649 69.36 449.345 66.8C448.641 66.032 448.353 65.168 448.481 64.208C448.609 63.248 449.089 62.416 449.921 61.712C450.817 61.072 451.745 60.816 452.705 60.944C453.665 61.072 454.465 61.488 455.105 62.192C456.641 63.984 458.657 65.36 461.153 66.32C463.713 67.28 466.529 67.76 469.601 67.76C474.337 67.76 477.761 66.96 479.873 65.36C481.985 63.696 483.073 61.712 483.137 59.408C483.137 57.104 482.049 55.216 479.873 53.744C477.697 52.208 474.113 51.024 469.121 50.192C462.657 49.168 457.921 47.376 454.913 44.816C451.905 42.256 450.401 39.216 450.401 35.696C450.401 32.432 451.265 29.712 452.993 27.536C454.721 25.36 457.025 23.728 459.905 22.64C462.785 21.552 465.953 21.008 469.409 21.008C473.697 21.008 477.377 21.744 480.449 23.216C483.585 24.688 486.113 26.672 488.033 29.168C488.673 30 488.929 30.864 488.801 31.76C488.673 32.656 488.161 33.392 487.265 33.968C486.497 34.416 485.601 34.576 484.577 34.448C483.617 34.256 482.785 33.776 482.081 33.008C480.481 31.152 478.625 29.808 476.513 28.976C474.401 28.08 471.969 27.632 469.217 27.632C465.697 27.632 462.881 28.368 460.769 29.84C458.657 31.248 457.601 33.04 457.601 35.216C457.601 36.688 457.985 37.968 458.753 39.056C459.585 40.144 460.961 41.104 462.881 41.936C464.865 42.768 467.617 43.472 471.137 44.048C475.937 44.816 479.713 45.968 482.465 47.504C485.281 48.976 487.265 50.736 488.417 52.784C489.633 54.768 490.241 56.944 490.241 59.312C490.241 62.32 489.345 64.976 487.553 67.28C485.825 69.52 483.393 71.28 480.257 72.56C477.185 73.84 473.633 74.48 469.601 74.48ZM526.823 74.48C521.639 74.48 517.031 73.36 512.999 71.12C509.031 68.816 505.895 65.648 503.591 61.616C501.351 57.584 500.231 52.976 500.231 47.792C500.231 42.544 501.287 37.936 503.399 33.968C505.575 29.936 508.551 26.768 512.327 24.464C516.103 22.16 520.455 21.008 525.383 21.008C530.247 21.008 534.471 22.128 538.055 24.368C541.703 26.544 544.519 29.584 546.503 33.488C548.487 37.392 549.479 41.84 549.479 46.832C549.479 47.856 549.159 48.688 548.519 49.328C547.879 49.904 547.047 50.192 546.023 50.192H505.223V44.048H546.791L542.663 47.024C542.727 43.312 542.055 39.984 540.647 37.04C539.239 34.096 537.223 31.792 534.599 30.128C532.039 28.464 528.967 27.632 525.383 27.632C521.735 27.632 518.535 28.496 515.783 30.224C513.031 31.952 510.887 34.352 509.351 37.424C507.879 40.432 507.143 43.888 507.143 47.792C507.143 51.696 507.975 55.152 509.639 58.16C511.367 61.168 513.703 63.536 516.647 65.264C519.591 66.992 522.983 67.856 526.823 67.856C529.127 67.856 531.431 67.472 533.735 66.704C536.103 65.872 537.991 64.848 539.399 63.632C540.103 63.056 540.903 62.768 541.799 62.768C542.695 62.704 543.463 62.928 544.103 63.44C544.935 64.208 545.351 65.04 545.351 65.936C545.415 66.832 545.063 67.6 544.295 68.24C542.183 70.032 539.495 71.536 536.231 72.752C532.967 73.904 529.831 74.48 526.823 74.48Z" fill="#3A8370"/>
</svg>
