<?xml version="1.0" encoding="UTF-8"?>
<svg id="Lager_1" data-name="Lager 1" xmlns="http://www.w3.org/2000/svg" xmlns:xlink="http://www.w3.org/1999/xlink" viewBox="0 0 232.36 243.69">
  <defs>
    <style>
      .cls-1 {
        fill: url(#Namnlös_övertoning_8);
      }

      .cls-1, .cls-2, .cls-3, .cls-4, .cls-5, .cls-6, .cls-7, .cls-8 {
        stroke-width: 0px;
      }

      .cls-2 {
        fill: #56ab6c;
      }

      .cls-3 {
        fill: #152f3c;
      }

      .cls-4 {
        fill: #bbdcbf;
      }

      .cls-5 {
        fill: #7cc086;
      }

      .cls-6 {
        fill: #fff;
      }

      .cls-7 {
        fill: url(#Namnlös_övertoning_10);
      }

      .cls-8 {
        fill: url(#Namnlös_övertoning_17);
      }
    </style>
    <linearGradient id="Namnlös_övertoning_10" data-name="Namnlös övertoning 10" x1="167.93" y1="195.78" x2="103.14" y2="83.55" gradientUnits="userSpaceOnUse">
      <stop offset="0" stop-color="#0c985d"/>
      <stop offset="1" stop-color="#72bd82"/>
    </linearGradient>
    <linearGradient id="Namnlös_övertoning_17" data-name="Namnlös övertoning 17" x1="79.64" y1="220.8" x2="217.01" y2="141.49" gradientUnits="userSpaceOnUse">
      <stop offset="0" stop-color="#306f8f"/>
      <stop offset="1" stop-color="#067186"/>
    </linearGradient>
    <linearGradient id="Namnlös_övertoning_8" data-name="Namnlös övertoning 8" x1="113.02" y1="243.69" x2="113.02" y2="0" gradientUnits="userSpaceOnUse">
      <stop offset="0" stop-color="#182e3c"/>
      <stop offset="1" stop-color="#067186"/>
    </linearGradient>
  </defs>
  <path class="cls-7" d="M98.53,210.46c2.45-9.59,6.32-17.91,14.42-23.68,3.75-2.67,7.95-3.57,12.46-3.38,1.35.06,2.73.23,4.06.09,1.85-.2,2.41-1.45,1.53-3.09-.55-1.04-1.37-1.76-2.56-1.99-.78-.16-1.57-.32-2.36-.41-.79-.09-1.59-.09-2.76-.14.48-.67.76-1.17,1.15-1.59,3.71-4.09,7.45-8.14,11.13-12.24.85-.95,1.62-1.98,2.29-3.07,1.02-1.65.94-3.35-.17-4.96-1.12-1.63-2.64-2.57-4.67-2.34-1.6.18-3.14.58-4.39,1.71-1.42,1.29-2.97,2.44-4.3,3.82-3.33,3.45-6.48,7.08-9.85,10.49-3.48,3.52-7.15,6.86-10.73,10.27-1.79,1.71-3.58,3.43-5.39,5.12-4.71,4.39-8.25,9.49-10.02,15.77-.54,1.91-1.34,3.75-2.14,5.95-1.44-.58-2.91-.97-4.15-1.72-4.1-2.48-8.25-4.91-12.12-7.73-2.15-1.57-3.99-3.71-5.58-5.88-1.88-2.56-3.49-5.34-4.97-8.16-2.4-4.57-2.31-9.55-2.02-14.53.2-3.46.68-6.84,2.58-9.86,1.71-2.72,3.6-5.23,6.39-7.01,4.7-2.98,9.86-4.44,15.31-5.2,2.43-.34,4.86-.94,7.19-1.72,10.03-3.35,17.59-9.75,23.35-18.6,4.53-6.94,6.85-14.57,8.13-22.6.44-2.75.47-5.57.58-8.36.33-8.63,2.96-16.45,7.94-23.51,2.64-3.74,6.21-6.47,9.96-8.89,4.67-3.01,9.85-4.94,15.31-6.03,1.25-.25,2.53-.4,3.8-.46,10.05-.47,19.38,2.1,27.83,7.41,5.57,3.5,10.36,7.99,14.04,13.57,1.67,2.53,3.51,4.94,5.35,7.35,3.02,3.97,4.04,8.62,4.74,13.4,1.24,8.43,1.2,16.92.74,25.38-.29,5.34-1.31,10.63-2.97,15.75-1.65,5.09-3.17,10.23-5.04,15.24-1.03,2.75-2.43,5.42-4.08,7.85-4.22,6.21-8.42,12.44-13.51,18.03-6.13,6.74-12.95,12.65-20.71,17.36-4.29,2.6-8.95,4.6-13.56,6.63-15.75,6.93-32.16,9.21-49.21,6.59-.93-.14-1.85-.38-3.01-.62Z"/>
  <path class="cls-8" d="M62.78,191.59s90.28,53.86,148.12-60.67c7.81,24.3-56.58,85.7-56.58,85.7l-77.6-4.75-13.94-20.28Z"/>
  <path class="cls-5" d="M151.41,153.37c-3.34,5.99-1.27,11.06-11.99,27.77-6.85,10.68-21.45,18.55-36.52,18.32-4.47-.07-8.28-.89-11.19-1.77-1.31-.41-2.43-1.28-3.15-2.45-1.71-2.79-4.15-7.83-3.97-14,3.06-7.03,12.08-20.82,37.07-27.7,1.53-.15,3.34-.32,5.44-.52.87-.08,17.69-1.68,20.85-4.26.14-.11.69-.58,1.5-.69,1.15-.16,2.52.44,2.99,1.38.7,1.4-.71,3.35-1.03,3.92Z"/>
  <path class="cls-2" d="M101.59,199.48s21.77,1.89,35.59-15.27c-4.29,3.02-9.88,6.4-16.75,9.38-7.1,3.07-13.59,4.84-18.84,5.89Z"/>
  <path class="cls-1" d="M225.47,103c-.38-4.44-.92-8.96-2.16-13.21-2.43-8.37-6.69-15.87-11.94-22.83-.94-1.24-1.91-2.45-2.93-3.61t-.01,0c-4.59-5.32-9.93-9.81-16.09-13.35-11.13-6.4-23.28-8.61-35.98-8.37-.95.02-1.91.18-2.84.4-3.79.94-7.63,1.78-11.36,2.93-6.33,1.95-12.11,4.99-17.08,9.44-.62.55-1.27,1.09-2.03,1.73-.32.27-.67.56-1.04.88-2.52-3.32-4.95-6.25-4.91-10.56.1-10.32.07-20.64-.01-30.96-.02-1.97-.31-4.01-.89-5.88-1.35-4.37-5.02-7.65-9.34-8.97-3.84-1.17-8.18-.78-11.86,1.78-4.25,2.96-6.33,7.12-6.35,12.26-.04,9.84-.01,19.68,0,29.52.01,4.06-.07,8.11.41,12.19,1.39,11.71,6.5,21.48,15.02,29.45,1.83,1.7,2.61,3.47,2.69,5.75.04,1.2.09,2.42-.11,3.59-.73,4.25-1.3,8.56-2.42,12.71-2.44,9.04-7.57,16.26-16.06,20.51-4.41,2.21-9.06,3.1-13.77,3.1h-.03c-2.9,0-5.82-.33-8.72-.9-6.05-1.19-12.04-2.53-18.23-2.56-1.67,0-3.36.03-5.02.26-13.07,1.82-22.87,9.13-30.83,19.08-4.3,5.38-7.2,11.4-9.03,17.8-.18.64-.36,1.29-.52,1.93-.16.65-.31,1.3-.45,1.96-.1.45-.2.91-.28,1.38-.07.35-.14.7-.2,1.05-.1.57-.19,1.15-.28,1.73-.07.43-.13.86-.18,1.3-.04.25-.07.5-.1.76-.06.47-.11.95-.15,1.42-.03.17-.05.34-.05.51-.05.42-.08.84-.11,1.26-.03.26-.05.51-.06.77-.03.34-.05.68-.06,1.02-.03.29-.04.58-.04.87-.02.36-.03.71-.04,1.06-.04,1.24-.04,2.49,0,3.74.02.63.04,1.27.08,1.91.04.64.08,1.28.14,1.92.3,3.64.92,7.26,1.92,10.83,1.5,5.42,3.29,10.73,6.45,15.42,5.04,7.46,11.47,13.6,18.12,19.52.05.05.1.09.15.13,1.48,1.32,2.98,2.64,4.47,3.95.3.26.61.52.93.76,2.21,1.7,4.83,2.85,7.68,3.21,6.82.85,11.89-3.1,14.59-8.38,1.11-2.18,1.41-4.6.74-7.01-.79-2.79-1.92-5.45-3.96-7.57-2.06-2.13-4.21-4.17-6.39-6.17-.09-.08-.17-.16-.26-.24-2.75-2.5-5.64-4.84-8.29-7.45-1.34-1.31-2.5-2.94-3.3-4.64-.12-.25-.23-.49-.34-.74-.16-.35-.31-.71-.46-1.06-.15-.35-.29-.7-.42-1.05-.43-1.1-.81-2.21-1.13-3.32-.09-.3-.18-.61-.25-.92-.19-.66-.35-1.32-.49-1.99-.07-.35-.14-.7-.21-1.05-.14-.76-.26-1.52-.36-2.29-.05-.38-.1-.77-.13-1.15-.05-.39-.08-.77-.11-1.16,0-.03-.01-.06-.01-.09-.05-.74-.09-1.47-.11-2.21-.01-.4-.01-.8-.01-1.19,0-.79.02-1.59.06-2.39.01-.05.01-.09.01-.14.03-.65.08-1.3.14-1.96.15-1.7.39-3.42.7-5.14.1-.57.23-1.12.38-1.65.02-.06.03-.12.05-.17,1.19-4.13,3.75-7.33,7.09-10.06,1.48-1.22,3.22-1.97,5.36-2.42,0,1.05.03,1.9,0,2.75-.18,3.83-.34,7.66-.56,11.49-.36,6.05,1.09,11.76,3.28,17.3.87,2.2,1.9,4.27,3.09,6.22.21.36.43.72.66,1.07.18.31.38.61.58.91,0,.01.01.02.02.03,3.75,5.54,8.67,10.1,14.38,13.99,4.27,2.89,8.81,5.25,13.49,7.31,2.3,1.01,4.63,1.95,6.99,2.84.33.13.67.25,1.01.38,3.69,1.38,7.52,2.47,11.42,3.02,1.32.2,2.64.32,3.98.38,5.91.27,11.83.21,17.74.18,8.62-.05,17.03-1.3,25.27-3.57,2.4-.64,4.79-1.38,7.16-2.21,5.31-1.84,10.32-4.35,15.13-7.2,7.28-4.32,14.6-8.6,21.03-14.2,8.7-7.57,15.91-16.41,22.09-26.09,4.59-7.19,7.56-15.14,10.48-23.1,2.61-7.09,4.33-14.38,5.18-21.88,1-8.86.95-17.73.19-26.59ZM210.66,123.56c-.13,2.44-.42,4.88-.86,7.29-.03.21-.07.42-.11.63,0,.01,0,.03-.01.04-.5,2.63-1.17,5.23-2,7.79-1.65,5.09-3.16,10.24-5.04,15.24-1.02,2.75-2.43,5.43-4.08,7.85-4.22,6.21-8.42,12.44-13.5,18.03-6.13,6.74-12.95,12.65-20.71,17.36-4.29,2.6-8.96,4.6-13.56,6.63-15.04,6.62-30.68,8.99-46.9,6.92-.77-.1-1.54-.21-2.31-.33-.2-.03-.4-.07-.61-.1-.73-.14-1.49-.33-2.4-.52,1.01-3.96,2.26-7.71,3.97-11.15,0-.01,0-.02.02-.04,2.4-4.87,5.69-9.12,10.43-12.49,3.75-2.68,7.95-3.57,12.46-3.38.1,0,.21.01.31.02,1.25.06,2.51.2,3.75.07,1.06-.12,1.7-.58,1.87-1.27h0c.14-.51.03-1.13-.34-1.82-.34-.64-.78-1.16-1.35-1.51-.35-.23-.75-.39-1.21-.48-.78-.16-1.56-.33-2.36-.42-.6-.07-1.21-.08-1.99-.11-.24-.01-.49-.02-.77-.03.48-.67.77-1.17,1.15-1.59,2.34-2.58,4.69-5.14,7.02-7.71,1.38-1.51,2.75-3.02,4.11-4.54.01-.01.02-.02.02-.03.85-.93,1.62-1.96,2.27-3.03.68-1.11.87-2.23.59-3.34h0c-.14-.55-.39-1.09-.75-1.62-1.12-1.63-2.64-2.57-4.68-2.34-1.6.18-3.14.58-4.39,1.71-1.42,1.29-2.97,2.44-4.3,3.82-3.33,3.45-6.48,7.08-9.85,10.49-3.49,3.52-7.15,6.85-10.74,10.27-1.79,1.71-3.57,3.44-5.39,5.12-2.94,2.74-5.43,5.77-7.31,9.18,0,.02-.02.04-.03.06-1.12,2.03-2.02,4.2-2.68,6.53-.54,1.91-1.34,3.75-2.14,5.95-.1-.04-.19-.08-.29-.11-1.35-.52-2.7-.9-3.86-1.61-4.1-2.48-8.25-4.91-12.12-7.72-2.15-1.57-3.99-3.71-5.58-5.88-.24-.32-.47-.64-.69-.97-.07-.09-.13-.19-.19-.28-1.51-2.2-2.85-4.54-4.09-6.91-1.29-2.46-1.86-5.04-2.07-7.67-.14-1.83-.1-3.68-.02-5.55.02-.44.04-.88.07-1.32.2-3.46.68-6.84,2.58-9.85,1.72-2.72,3.6-5.24,6.4-7.01,4.7-2.99,9.85-4.44,15.3-5.21,2.44-.34,4.87-.94,7.2-1.72,10.03-3.34,17.59-9.75,23.35-18.59,3.07-4.73,5.14-9.76,6.54-15.03.21-.76.4-1.53.57-2.3.4-1.73.74-3.49,1.02-5.27.36-2.29.44-4.62.52-6.94.02-.48.03-.95.05-1.42.09-2.43.36-4.8.83-7.1,1.17-5.87,3.53-11.34,7.11-16.41,2.65-3.74,6.21-6.47,9.96-8.89,4.66-3.02,9.85-4.95,15.31-6.04,1.25-.24,2.53-.4,3.8-.46,10.05-.47,19.38,2.1,27.83,7.4,4.07,2.56,7.72,5.65,10.82,9.3,1.15,1.35,2.23,2.77,3.22,4.28,1.67,2.52,3.51,4.93,5.35,7.35,3.02,3.97,4.03,8.62,4.74,13.4,1.23,8.43,1.2,16.91.74,25.38Z"/>
  <path class="cls-4" d="M210.66,123.56c-.13,2.44-.42,4.88-.86,7.29.02-.84.04-1.68.05-2.52v-.1c.34-8.06.26-16.13-.86-24.15-.71-5.04-1.73-9.94-4.76-14.13-1.85-2.54-3.7-5.08-5.38-7.74-3.69-5.89-8.51-10.62-14.11-14.31-8.49-5.6-17.86-8.3-27.96-7.81-1.28.06-2.56.23-3.82.49-5.49,1.15-10.7,3.18-15.38,6.36-3.77,2.55-7.35,5.43-10.01,9.37-2.54,3.77-4.46,7.75-5.79,11.94,1.17-5.87,3.53-11.34,7.11-16.41,2.65-3.74,6.21-6.47,9.96-8.89,4.66-3.02,9.85-4.95,15.31-6.04,1.25-.24,2.53-.4,3.8-.46,10.05-.47,19.38,2.1,27.83,7.4,4.07,2.56,7.72,5.65,10.82,9.3,1.15,1.35,2.23,2.77,3.22,4.28,1.67,2.52,3.51,4.93,5.35,7.35,3.02,3.97,4.03,8.62,4.74,13.4,1.23,8.43,1.2,16.91.74,25.38Z"/>
  <path class="cls-4" d="M121.66,153.54c-24.99,6.88-34.01,20.67-37.07,27.7.01-.86.09-1.74.22-2.64,1.62-10.93,10.86-16.76,14.06-18.78,5.8-3.66,11.74-4.78,16.36-5.64.17-.04,2.28-.24,6.43-.64Z"/>
  <path class="cls-4" d="M138.36,162.1c-.69,1.07-1.48,2.1-2.35,3.02-3.76,4.04-7.58,8.02-11.36,12.04-.18.19-.35.41-.52.65-.24-.01-.49-.02-.77-.03.48-.67.77-1.17,1.15-1.59,3.71-4.09,7.45-8.14,11.13-12.25.85-.94,1.63-1.98,2.29-3.06.68-1.11.87-2.23.59-3.34.84,1.51.8,3.06-.16,4.56Z"/>
  <path class="cls-4" d="M129.51,184.48c-1.34.12-2.7-.09-4.06-.17-4.5-.27-8.72.55-12.52,3.15-4.61,3.16-7.91,7.15-10.37,11.74,2.4-4.87,5.69-9.12,10.43-12.49,3.75-2.68,7.95-3.57,12.46-3.38,1.35.05,2.72.23,4.06.09,1.06-.12,1.7-.58,1.87-1.27.35,1.28-.3,2.19-1.87,2.33Z"/>
  <path class="cls-5" d="M209.85,128.23c.07-6.06-.19-12.12-1.03-18.16-.7-5.05-1.73-9.95-4.76-14.13-1.84-2.55-3.7-5.09-5.37-7.75-3.7-5.88-8.52-10.62-14.11-14.31-8.49-5.6-17.87-8.3-27.97-7.81-1.27.07-2.56.23-3.81.49-5.49,1.15-10.7,3.18-15.39,6.36-3.77,2.55-7.35,5.43-10,9.38-3.05,4.52-5.21,9.34-6.51,14.47.02-.48.03-.95.05-1.42.09-2.43.36-4.8.83-7.1,1.33-4.19,3.25-8.17,5.79-11.94,2.66-3.94,6.24-6.82,10.01-9.37,4.68-3.18,9.89-5.21,15.38-6.36,1.26-.26,2.54-.43,3.82-.49,10.1-.49,19.47,2.21,27.96,7.81,5.6,3.69,10.42,8.42,14.11,14.31,1.68,2.66,3.53,5.2,5.38,7.74,3.03,4.19,4.05,9.09,4.76,14.13,1.12,8.02,1.2,16.09.86,24.15Z"/>
  <path class="cls-6" d="M179.34,94.67s-4.68-4.56-19.09-9.42c-3-1.2-3.78.96-3.78.96,0,0-6.6,11.58-6.66,24.73s4.08,20.77,12.78,28.87c8.7,8.1,16.75,7.86,16.75,7.86,0,0,14.46,2.82,27.01-6.84,12.54-9.66,16.87-27.07,16.87-27.07,0,0,2.76-9.36,3.54-14.11.66-3.98,4.41-24.33,5.59-30.73.17-.92-.66-1.71-1.57-1.48-6.73,1.67-29.96,8.49-51.43,27.23Z"/>
  <path class="cls-3" d="M197.89,97.61l-15.73,17.28-4.46-4.46c-2.93-2.93-7.67-2.93-10.59,0h0c-2.93,2.93-2.93,7.67,0,10.59l10.36,10.36c3.64,3.64,9.58,3.52,13.07-.26l21.39-23.19c3.14-3.4,3.03-8.68-.24-11.95h0c-3.4-3.4-8.93-3.36-12.29.09l-1.5,1.54Z"/>
</svg>