<?xml version="1.0" encoding="UTF-8"?>
<svg id="Lager_2" data-name="Lager 2" xmlns="http://www.w3.org/2000/svg" viewBox="0 0 90.01 102.95">
  <defs>
    <style>
      .cls-1 {
        stroke-width: 0px;
      }
    </style>
  </defs>
  <g id="Lager_1-2" data-name="Lager 1">
    <g>
      <path class="cls-1" d="M26.53,67.22c5.84,3.8,11.46,7.45,17.08,11.1,4.9-6.17,11.95-7.94,19.35-8.94.76-.1,1.52-.21,2.5-.35-.38-.88-.69-1.51-.91-2.16-.44-1.28-.13-2.43.74-2.71,1.09-.35,1.91.17,2.39,1.1.7,1.34,1.38,2.72,1.87,4.14.55,1.6-.07,2.64-1.79,2.98-1.96.39-3.96.55-5.94.8-4.09.53-7.92,1.82-11.52,3.85-1.83,1.03-3.09,2.52-4.02,4.32-.27.51-.27,1.2-.28,1.8-.01.55.13,1.1.19,1.66.11,1.06-.59,2.21.45,3.17,1.25,1.15,2.53,2.2,4.26,2.55,2.87.59,5.75.46,8.59-.1,6.03-1.2,12.05-2.5,18.05-3.84,1.39-.31,2.73-.92,4.04-1.5,3.46-1.54,5.22-4.26,4.86-8.01-.35-3.73-.79-7.49-1.66-11.12-1.74-7.32-4.52-14.32-7.49-21.23-.46-1.07-1.32-1.98-2-2.96-.45-.65-.99-1.26-1.34-1.96-.45-.89-.23-1.77.61-2.31.8-.52,1.63-.17,2.15.47,1.26,1.54,2.79,3,3.55,4.77,4.09,9.47,8.01,19.02,9.39,29.36.28,2.13.38,4.3.34,6.45-.08,4.12-2.09,7.22-5.67,9.1-2.24,1.18-4.71,1.96-7.12,2.78-1.57.54-3.23.84-5.04,1.3-.07,1.28-.14,2.54-.21,3.8-.04.72-.1,1.44-.17,2.15-.23,2.22-.82,3.03-2.08,2.88-1.17-.14-1.54-.97-1.47-3.06.05-1.58.01-3.16.01-4.93-2.86.5-5.57,1.14-8.33,1.41-2.85.28-5.75.45-8.59.22-1.67-.13-3.29-1.08-4.88-1.77-.7-.3-1.29-.87-2.01-1.38-.62.71-1.2,1.36-1.76,2.03-2.42,2.84-5.49,3.88-9.05,2.87-2.75-.78-5.42-1.88-8.09-2.93-1.69-.66-3.32-1.49-5.34-2.41-.04,1.55-.08,2.78-.09,4.02-.02,1.52.05,3.04-.04,4.56-.08,1.41-.78,2.17-1.77,2.16-.99-.01-1.73-.8-1.77-2.17-.07-2.88-.04-5.76-.05-8.64,0-.47,0-.95,0-1.52-1.69-.78-3.37-1.5-5-2.33-2.06-1.05-4.16-2.07-6.11-3.31-4.6-2.93-6.18-6.58-4.96-11.9.68-2.95,1.68-5.84,2.76-8.67,2.11-5.52,4.36-11,6.61-16.47,2.33-5.66,5.77-10.49,10.85-14.04.72-.5,1.48-.96,2.26-1.35.95-.48,1.89-.4,2.58.49.53.68.17,1.72-.76,2.48-.18.15-.4.27-.6.4-4.95,3.03-8.44,7.33-10.63,12.64-2.8,6.8-5.49,13.64-8.14,20.5-.68,1.78-1.13,3.67-1.48,5.54-.57,3.05.41,5.54,3.15,7.15,1.79,1.06,3.57,2.14,5.45,3.01,5.58,2.59,11.19,5.14,16.84,7.57,1.89.81,3.93,1.3,5.94,1.78,1.78.43,3.32-.18,4.51-1.58.62-.73,1.27-1.45,1.75-2.27,1.85-3.1,1.45-6.24-1.52-8.26-4.94-3.37-10.04-6.54-15.19-9.58-2.61-1.54-3.05-2.17-1.64-4.89.92-1.77,1.93-3.5,2.92-5.24.16-.28.34-.54.55-.78.61-.67,1.36-.89,2.16-.45.81.44,1.03,1.21.76,2.06-.16.53-.41,1.04-.68,1.53-.76,1.4-1.54,2.78-2.32,4.18Z"/>
      <path class="cls-1" d="M75.74,24.16c-.27,13.26-11.22,23.81-24.39,23.47-12.98-.33-23.55-11.25-23.22-24.16C28.49,9,40.36.04,51.55,0c14.07-.05,24.35,11.23,24.19,24.15ZM51.82,43.94c11.2.03,20.22-8.82,20.31-19.95.09-11.08-9.02-20.45-19.95-20.35-13.46.12-20.49,10.95-20.4,20.11.11,11.23,8.86,20.16,20.04,20.19Z"/>
      <path class="cls-1" d="M35.75,102.95c-1.65-.41-3.06-.66-4.4-1.14-1.24-.44-1.75-1.44-1.51-2.39.24-.92,1.22-1.38,2.57-.95,2.12.68,4.15.88,6.25-.15,1.14-.56,2.06-.14,2.41.76.43,1.1-.08,1.97-1,2.38-1.43.63-2.96,1.03-4.32,1.48Z"/>
      <path class="cls-1" d="M50.01,67.89c-.25.29-.6.97-1.16,1.28-1.92,1.05-3.66,2.24-4.8,4.2-.47.81-1.37,1.21-2.28.65-.86-.53-1.06-1.47-.66-2.33.43-.93.93-1.95,1.69-2.57,1.4-1.16,2.93-2.22,4.55-3.03,1.37-.68,2.64.14,2.66,1.8Z"/>
    </g>
  </g>
</svg>