<?xml version="1.0" encoding="UTF-8"?>
<svg id="Layer_1" data-name="Layer 1" xmlns="http://www.w3.org/2000/svg" xmlns:xlink="http://www.w3.org/1999/xlink" viewBox="0 0 1674.03 1414.22">
  <defs>
    <style>
      .cls-1 {
        fill: none;
        stroke: #130e0b;
        stroke-width: .28px;
      }

      .cls-1, .cls-2 {
        stroke-miterlimit: 10;
      }

      .cls-3 {
        fill: #f9f9f9;
      }

      .cls-3, .cls-4 {
        opacity: .36;
      }

      .cls-3, .cls-4, .cls-5, .cls-6, .cls-7, .cls-8, .cls-9, .cls-10, .cls-11, .cls-12, .cls-13, .cls-14, .cls-15, .cls-16, .cls-17, .cls-18, .cls-19, .cls-20, .cls-21, .cls-22, .cls-23, .cls-24, .cls-25, .cls-26, .cls-27, .cls-28, .cls-29, .cls-30, .cls-31, .cls-32, .cls-33, .cls-34, .cls-35, .cls-36, .cls-37, .cls-38, .cls-39, .cls-40, .cls-41, .cls-42, .cls-43, .cls-44, .cls-45, .cls-46, .cls-47, .cls-48, .cls-49, .cls-50, .cls-51, .cls-52, .cls-53, .cls-54, .cls-55, .cls-56, .cls-57, .cls-58, .cls-59, .cls-60, .cls-61, .cls-62, .cls-63, .cls-64, .cls-65, .cls-66, .cls-67, .cls-68, .cls-69, .cls-70, .cls-71, .cls-72, .cls-73, .cls-74, .cls-75, .cls-76, .cls-77, .cls-78, .cls-79, .cls-80, .cls-81, .cls-82, .cls-83, .cls-84, .cls-85, .cls-86, .cls-87, .cls-88, .cls-89, .cls-90, .cls-91, .cls-92, .cls-93, .cls-94, .cls-95, .cls-96, .cls-97, .cls-98, .cls-99, .cls-100, .cls-101 {
        stroke-width: 0px;
      }

      .cls-4 {
        fill: #1f1e60;
      }

      .cls-5 {
        fill: url(#linear-gradient);
      }

      .cls-6 {
        fill: url(#linear-gradient-11);
      }

      .cls-7 {
        fill: url(#linear-gradient-12);
      }

      .cls-8 {
        fill: url(#linear-gradient-10);
      }

      .cls-9 {
        opacity: .47;
      }

      .cls-9, .cls-12 {
        fill: #f3f3f3;
      }

      .cls-10 {
        fill: #ff7d1d;
        opacity: .32;
      }

      .cls-11 {
        fill: #1b1464;
        opacity: .15;
      }

      .cls-12 {
        opacity: .23;
      }

      .cls-13 {
        fill: url(#linear-gradient-4);
      }

      .cls-14 {
        fill: url(#linear-gradient-2);
      }

      .cls-15 {
        fill: url(#linear-gradient-3);
      }

      .cls-16 {
        fill: url(#linear-gradient-8);
      }

      .cls-17 {
        fill: url(#linear-gradient-9);
      }

      .cls-18 {
        fill: url(#linear-gradient-7);
      }

      .cls-19 {
        fill: url(#linear-gradient-5);
      }

      .cls-20 {
        fill: url(#linear-gradient-6);
      }

      .cls-21 {
        fill: #f2f8ff;
        opacity: .53;
      }

      .cls-22 {
        fill: #f4a786;
      }

      .cls-23 {
        fill: #f2f2fd;
      }

      .cls-24 {
        fill: #f6f6f6;
      }

      .cls-25 {
        fill: #5e6492;
      }

      .cls-26 {
        fill: #513826;
      }

      .cls-27 {
        fill: #2d2d2d;
      }

      .cls-28 {
        fill: #2c2e3a;
      }

      .cls-29 {
        fill: #2b2e41;
      }

      .cls-30 {
        fill: #292960;
      }

      .cls-31 {
        fill: #4579d0;
      }

      .cls-32 {
        fill: #44c1b8;
      }

      .cls-33 {
        fill: #30255d;
      }

      .cls-34 {
        fill: #314452;
      }

      .cls-35 {
        fill: #2680ca;
      }

      .cls-36 {
        fill: #1b3858;
      }

      .cls-37 {
        fill: #19262d;
      }

      .cls-38 {
        fill: #0baeb2;
      }

      .cls-39 {
        fill: #3f3b7a;
      }

      .cls-40 {
        fill: #454545;
      }

      .cls-41 {
        fill: #1c1715;
      }

      .cls-42 {
        fill: #442b19;
      }

      .cls-43 {
        fill: #153047;
      }

      .cls-44 {
        fill: #12e8e8;
      }

      .cls-45 {
        fill: #40a3ed;
      }

      .cls-46 {
        fill: #22313a;
      }

      .cls-47 {
        fill: #221e52;
      }

      .cls-48 {
        fill: #1f1851;
      }

      .cls-49 {
        fill: #1e1e1e;
      }

      .cls-50 {
        fill: #130e0b;
      }

      .cls-51 {
        fill: #14c0cc;
      }

      .cls-52 {
        fill: #25235c;
      }

      .cls-53 {
        fill: #22afab;
      }

      .cls-54 {
        fill: #c3c5ea;
      }

      .cls-55 {
        fill: #d1e5f7;
      }

      .cls-56 {
        fill: #dce2ea;
      }

      .cls-57 {
        fill: #cacde7;
      }

      .cls-58 {
        fill: #c5e6fb;
      }

      .cls-59 {
        fill: #c6cfde;
      }

      .cls-60 {
        fill: #c95b60;
      }

      .cls-61 {
        fill: #dfe0f6;
      }

      .cls-62 {
        fill: #deeaf9;
      }

      .cls-63 {
        fill: #dbdcf3;
      }

      .cls-64 {
        fill: #d4e0e9;
      }

      .cls-65 {
        fill: #bf3022;
      }

      .cls-66 {
        fill: #c24b4c;
      }

      .cls-67 {
        fill: #a2fafb;
      }

      .cls-68 {
        fill: #b0b0b0;
      }

      .cls-69 {
        fill: #d9775d;
      }

      .cls-70 {
        fill: #af3d10;
      }

      .cls-71, .cls-2 {
        fill: #cecece;
      }

      .cls-72 {
        fill: #84c9f4;
      }

      .cls-73 {
        fill: #9cd6e2;
      }

      .cls-74 {
        fill: #9f3303;
      }

      .cls-75 {
        fill: #911a39;
      }

      .cls-76 {
        fill: #9098bf;
      }

      .cls-77 {
        fill: #b6d8f8;
      }

      .cls-78 {
        fill: #b84e37;
      }

      .cls-79 {
        fill: #c1c8da;
      }

      .cls-80 {
        fill: #303030;
      }

      .cls-81 {
        fill: #999dbe;
      }

      .cls-82 {
        fill: #9fbcdb;
      }

      .cls-83 {
        fill: #feb082;
      }

      .cls-84 {
        fill: #ef3430;
      }

      .cls-85 {
        fill: #f44437;
      }

      .cls-86 {
        fill: #fff;
      }

      .cls-87 {
        fill: #ffeaec;
      }

      .cls-88 {
        fill: #fffefb;
      }

      .cls-89 {
        fill: #fffeff;
      }

      .cls-90 {
        fill: #eff1fe;
      }

      .cls-91 {
        fill: #fdc596;
      }

      .cls-92 {
        fill: #ffac1b;
      }

      .cls-93 {
        fill: #fbddb8;
      }

      .cls-94 {
        fill: #eba97a;
      }

      .cls-95 {
        fill: #efceab;
      }

      .cls-96 {
        fill: #ebe8f9;
      }

      .cls-97 {
        fill: #ebf5ff;
      }

      .cls-98 {
        fill: #f29b0f;
      }

      .cls-99 {
        fill: #f5f8fe;
      }

      .cls-100 {
        fill: #ff556c;
      }

      .cls-101 {
        fill: #e8b795;
      }

      .cls-2 {
        stroke: #cecece;
        stroke-width: .65px;
      }
    </style>
    <linearGradient id="linear-gradient" x1="5889.33" y1="1301.58" x2="6019.36" y2="1301.58" gradientTransform="translate(-4591.83 2603.15) scale(1 -1)" gradientUnits="userSpaceOnUse">
      <stop offset="0" stop-color="#fff"/>
      <stop offset=".03" stop-color="#fff6ed"/>
      <stop offset=".13" stop-color="#ffdfbd"/>
      <stop offset=".22" stop-color="#ffca92"/>
      <stop offset=".33" stop-color="#ffb96e"/>
      <stop offset=".44" stop-color="#ffab51"/>
      <stop offset=".55" stop-color="#ffa03a"/>
      <stop offset=".67" stop-color="#ff982a"/>
      <stop offset=".81" stop-color="#ff9420"/>
      <stop offset="1" stop-color="#ff931e"/>
    </linearGradient>
    <linearGradient id="linear-gradient-2" x1="5895.48" y1="1207.53" x2="6016.05" y2="1207.53" gradientTransform="translate(7316.86) rotate(-180) scale(1 -1)" xlink:href="#linear-gradient"/>
    <linearGradient id="linear-gradient-3" x1="5899.31" y1="1269.71" x2="5952.76" y2="1269.71" gradientTransform="translate(-4535.22 2539.43) scale(1 -1)" xlink:href="#linear-gradient"/>
    <linearGradient id="linear-gradient-4" x1="8624.13" y1="1269.71" x2="8662.12" y2="1269.71" gradientTransform="translate(-3517.38 2539.43) scale(.56 -1)" xlink:href="#linear-gradient"/>
    <linearGradient id="linear-gradient-5" x1="5899.31" y1="1286.15" x2="5927.32" y2="1286.15" gradientTransform="translate(7316.86) rotate(-180) scale(1 -1)" xlink:href="#linear-gradient"/>
    <linearGradient id="linear-gradient-6" x1="5899.31" y1="1291.94" x2="5949.73" y2="1291.94" gradientTransform="translate(7316.86) rotate(-180) scale(1 -1)" xlink:href="#linear-gradient"/>
    <linearGradient id="linear-gradient-7" x1="5899.31" y1="1301.58" x2="6003" y2="1301.58" gradientTransform="translate(7316.86) rotate(-180) scale(1 -1)" xlink:href="#linear-gradient"/>
    <linearGradient id="linear-gradient-8" x1="5899.31" y1="1307.18" x2="6003" y2="1307.18" gradientTransform="translate(7316.86) rotate(-180) scale(1 -1)" xlink:href="#linear-gradient"/>
    <linearGradient id="linear-gradient-9" x1="5986.98" y1="1291.94" x2="6003" y2="1291.94" gradientTransform="translate(7316.86) rotate(-180) scale(1 -1)" xlink:href="#linear-gradient"/>
    <linearGradient id="linear-gradient-10" x1="5961.56" y1="1291.94" x2="5977.59" y2="1291.94" gradientTransform="translate(7316.86) rotate(-180) scale(1 -1)" xlink:href="#linear-gradient"/>
    <linearGradient id="linear-gradient-11" x1="-812.2" y1="1031.78" x2="-776.64" y2="1031.78" gradientTransform="translate(1136.29)" gradientUnits="userSpaceOnUse">
      <stop offset="0" stop-color="#f7a1ab"/>
      <stop offset=".23" stop-color="#f98c97"/>
      <stop offset=".74" stop-color="#fd6573"/>
      <stop offset="1" stop-color="#ff5765"/>
    </linearGradient>
    <linearGradient id="linear-gradient-12" x1="5769.83" y1="1075.52" x2="5805.26" y2="1075.52" gradientTransform="translate(7261.15) rotate(-180) scale(1 -1)" xlink:href="#linear-gradient-11"/>
  </defs>
  <path class="cls-97" d="M1588.28,1382.37s161.19-239.21-56.06-422.13c7.01-28.14,182.21-140.71,133.15-412.75-49.06-272.04-234.77-412.75-388.95-333.01,0,0-574.66-534.7-928.57,84.43,0,0-126.15-65.66-178.71,65.66-52.56,131.33,28.03,173.54,28.03,173.54,0,0-220.75,137.58-63.07,378.35,0,0-276.82,212.63-35.04,465.91h1489.21Z"/>
  <ellipse class="cls-77" cx="837.01" cy="1381.83" rx="820.66" ry="32.39"/>
  <g>
    <g>
      <path class="cls-90" d="M1306.73,1208.18c4.99-4.02,11.58-6.26,18.44-6.26h82.12c2.61,0,14.36,11.31,21.86,18.81,4.14,4.14,6.4,9.39,6.4,14.83v129.71c0,12.65-12.02,22.9-26.85,22.9h-94.51c-14.83,0-26.85-10.25-26.85-22.9v-130.69c0-5.39,2.22-10.6,6.28-14.73,4.17-4.25,9.07-8.43,13.1-11.68Z"/>
      <rect class="cls-90" x="1305.65" y="1172.82" width="113.01" height="29.1" rx="6.64" ry="6.64" transform="translate(2724.31 2374.74) rotate(180)"/>
      <path class="cls-5" d="M1321.5,1220.42h82.02c13.25,0,24,10.75,24,24v114.32c0,13.25-10.75,24-24,24h-82.02c-13.25,0-24-10.75-24-24v-114.31c0-13.25,10.75-24,24-24Z" transform="translate(2725.02 2603.15) rotate(180)"/>
      <path class="cls-14" d="M1300.81,1213.13c4.59-4.01,9.05-7.46,11.67-9.44,1.53-1.15,3.49-1.78,5.53-1.78h89.28c1.81,0,7.97,5.4,14.09,11.21h-120.57Z"/>
      <path class="cls-62" d="M1418.66,1190.4v4.64c0,3.8-3.61,6.88-8.06,6.88h-96.89c-4.45,0-8.06-3.08-8.06-6.88v-4.64h113.01Z"/>
      <rect class="cls-86" x="1287.35" y="1249.78" width="148.2" height="89.9"/>
      <rect class="cls-62" x="1287.35" y="1319.63" width="148.2" height="20.04"/>
      <path class="cls-11" d="M1320.5,1220.85c-.64,1.96-1.02,4.02-1.02,6.15v115.36c0,12.97,12.7,23.48,28.37,23.48h73.28c1.84,0,3.63-.16,5.38-.43-3.27,9.98-14.26,17.32-27.35,17.32h-73.28c-15.67,0-28.37-10.51-28.37-23.48v-115.36c0-11.44,9.9-20.96,23-23.04Z"/>
      <path class="cls-86" d="M1401.07,1231.36c0,1.68,1.55,3.04,3.46,3.04s3.46-1.36,3.46-3.04-1.55-3.04-3.46-3.04-3.46,1.36-3.46,3.04Z"/>
      <path class="cls-86" d="M1367.11,1228.32c0,1.68,1.55,3.04,3.46,3.04s3.46-1.36,3.46-3.04-1.55-3.04-3.46-3.04-3.46,1.36-3.46,3.04Z"/>
      <path class="cls-86" d="M1332.35,1374.34c0,1.68,1.55,3.04,3.46,3.04s3.46-1.36,3.46-3.04-1.55-3.04-3.46-3.04-3.46,1.36-3.46,3.04Z"/>
      <path class="cls-86" d="M1388.06,1238.28c0,.72.66,1.3,1.48,1.3s1.48-.58,1.48-1.3-.66-1.3-1.48-1.3-1.48.58-1.48,1.3Z"/>
      <path class="cls-86" d="M1386.58,1354.16c0,.72.66,1.3,1.48,1.3s1.48-.58,1.48-1.3-.66-1.3-1.48-1.3-1.48.58-1.48,1.3Z"/>
      <path class="cls-86" d="M1332.86,1236.99c0,.72.66,1.3,1.48,1.3s1.48-.58,1.48-1.3-.66-1.3-1.48-1.3-1.48.58-1.48,1.3Z"/>
      <rect class="cls-15" x="1364.09" y="1261.37" width="53.46" height="16.69" rx="3.83" ry="3.83" transform="translate(2781.64 2539.43) rotate(180)"/>
      <rect class="cls-13" x="1313.86" y="1261.37" width="21.29" height="16.69" rx="2.42" ry="2.42" transform="translate(2649 2539.43) rotate(180)"/>
      <g>
        <rect class="cls-19" x="1389.53" y="1284.84" width="28.02" height="2.62"/>
        <rect class="cls-20" x="1367.12" y="1290.63" width="50.43" height="2.62"/>
        <rect class="cls-18" x="1313.86" y="1300.27" width="103.69" height="2.62"/>
        <rect class="cls-16" x="1313.86" y="1305.87" width="103.69" height="2.62"/>
        <rect class="cls-17" x="1313.86" y="1290.63" width="16.02" height="2.62"/>
        <rect class="cls-8" x="1339.27" y="1290.63" width="16.02" height="2.62"/>
      </g>
    </g>
    <g>
      <g>
        <g>
          <path class="cls-65" d="M1347.82,1349.45l14.26,17.17c4.73,5.69,3.51,13.8-2.72,18.12h0c-6.23,4.32-15.11,3.2-19.84-2.49l-14.26-17.17,22.56-15.63Z"/>
          <path class="cls-84" d="M1347.82,1349.45l14.26,17.17c4.73,5.69,4,13.46-1.63,17.36h0c-5.62,3.9-14.01,2.44-18.74-3.25l-14.26-17.17,20.37-14.11Z"/>
          <path class="cls-85" d="M1345.78,1350.86l14.26,17.17c4.73,5.69,4.45,13.15-.61,16.65h0c-5.06,3.51-12.99,1.74-17.72-3.95l-14.26-17.17,18.33-12.7Z"/>
        </g>
        <g>
          <path class="cls-55" d="M1348.15,1349.85l-14.29-17.15c-4.73-5.68-13.62-6.79-19.84-2.46h0c-6.22,4.33-7.43,12.44-2.69,18.12l14.29,17.15,22.53-15.66Z"/>
          <path class="cls-87" d="M1348.15,1349.85l-14.29-17.15c-4.73-5.68-13.13-7.13-18.74-3.22h0c-5.62,3.9-6.33,11.68-1.6,17.36l14.29,17.15,20.34-14.14Z"/>
          <path class="cls-89" d="M1346.12,1351.26l-14.29-17.15c-4.73-5.68-12.67-7.44-17.73-3.93h0c-5.06,3.51-5.32,10.97-.58,16.65l14.29,17.15,18.31-12.73Z"/>
        </g>
      </g>
      <g>
        <g>
          <path class="cls-35" d="M1308.82,1359.4l22.31.71c7.39.23,12.66,6.53,11.76,14.05h0c-.9,7.53-7.62,13.44-15.01,13.2l-22.31-.71,3.25-27.25Z"/>
          <path class="cls-72" d="M1308.82,1359.4l22.31.71c7.39.23,12.73,5.93,11.92,12.73h0c-.81,6.79-7.46,12.11-14.85,11.88l-22.31-.71,2.94-24.6Z"/>
          <path class="cls-45" d="M1308.52,1361.86l22.31.71c7.39.23,12.79,5.38,12.06,11.5h0c-.73,6.11-7.31,10.88-14.71,10.65l-22.31-.71,2.64-22.14Z"/>
        </g>
        <g>
          <path class="cls-55" d="M1309.34,1359.42l-22.31-.67c-7.39-.22-14.11,5.7-14.99,13.22h0c-.89,7.53,4.39,13.81,11.78,14.03l22.31.67,3.21-27.25Z"/>
          <path class="cls-87" d="M1309.34,1359.42l-22.31-.67c-7.39-.22-14.04,5.1-14.84,11.9h0c-.8,6.79,4.54,12.48,11.94,12.71l22.31.67,2.9-24.6Z"/>
          <path class="cls-89" d="M1309.05,1361.88l-22.31-.67c-7.39-.22-13.97,4.55-14.69,10.67h0c-.72,6.11,4.69,11.25,12.08,11.48l22.31.67,2.61-22.14Z"/>
        </g>
      </g>
      <g>
        <g>
          <path class="cls-65" d="M1274.53,1351.18l20.25-9.4c6.71-3.11,14.24.14,16.82,7.26h0c2.58,7.13-.76,15.43-7.47,18.54l-20.25,9.4-9.35-25.8Z"/>
          <path class="cls-84" d="M1274.53,1351.18l20.25-9.4c6.71-3.11,14.04-.42,16.37,6.01h0c2.33,6.43-1.22,14.17-7.93,17.29l-20.25,9.4-8.44-23.3Z"/>
          <path class="cls-85" d="M1275.37,1353.51l20.25-9.4c6.71-3.11,13.85-.95,15.94,4.84h0c2.1,5.79-1.64,13.01-8.35,16.12l-20.25,9.4-7.6-20.97Z"/>
        </g>
        <g>
          <path class="cls-55" d="M1275,1350.96l-20.23,9.43c-6.71,3.12-10.04,11.43-7.45,18.55h0c2.59,7.12,10.13,10.36,16.83,7.24l20.23-9.43-9.38-25.79Z"/>
          <path class="cls-87" d="M1275,1350.96l-20.23,9.43c-6.71,3.12-10.24,10.87-7.9,17.3h0c2.34,6.43,9.67,9.11,16.38,5.98l20.23-9.43-8.47-23.28Z"/>
          <path class="cls-89" d="M1275.85,1353.29l-20.24,9.43c-6.71,3.13-10.43,10.35-8.33,16.13h0c2.11,5.79,9.25,7.94,15.95,4.82l20.23-9.43-7.62-20.95Z"/>
        </g>
      </g>
      <g>
        <g>
          <path class="cls-10" d="M1249.3,1348.84l18.32-12.76c6.07-4.23,14.05-2.33,17.82,4.24h0c3.78,6.57,1.92,15.33-4.15,19.55l-18.32,12.76-13.67-23.8Z"/>
          <path class="cls-98" d="M1249.3,1348.84l18.32-12.76c6.07-4.23,13.75-2.85,17.16,3.09h0c3.41,5.93,1.25,14.17-4.82,18.4l-18.32,12.76-12.34-21.48Z"/>
          <path class="cls-92" d="M1250.54,1350.99l18.32-12.76c6.07-4.23,13.48-3.33,16.54,2.01h0c3.07,5.34.63,13.09-5.43,17.32l-18.32,12.76-11.11-19.34Z"/>
        </g>
        <g>
          <path class="cls-55" d="M1249.73,1348.54l-18.3,12.79c-6.06,4.24-7.91,13-4.13,19.56h0c3.78,6.57,11.77,8.45,17.83,4.21l18.3-12.79-13.71-23.77Z"/>
          <path class="cls-87" d="M1249.73,1348.54l-18.3,12.79c-6.06,4.24-8.21,12.48-4.79,18.4h0c3.42,5.93,11.1,7.3,17.16,3.06l18.3-12.79-12.37-21.46Z"/>
          <path class="cls-89" d="M1250.97,1350.69l-18.3,12.79c-6.06,4.24-8.49,12-5.41,17.33h0c3.08,5.33,10.48,6.22,16.55,1.99l18.3-12.79-11.14-19.32Z"/>
        </g>
      </g>
    </g>
  </g>
  <g>
    <path class="cls-22" d="M623.24,935.65s101.22,147.48,289.5-5c0,0,234.58,41.13,317.29-61.74,82.72-102.87,160.72-334.03,143.75-394.15-16.97-60.12,42.36-68.2-169.37-89.2-211.73-20.99-625.13-87-640.02-27.09-14.89,59.91-16.04,502.79,58.85,577.18Z"/>
    <path class="cls-78" d="M704.81,960.73c-4.51-.41-8.26-3.95-8.78-8.62-.59-5.34,3.26-10.15,8.6-10.75,1.24-.14,124.39-14.8,127.6-96.09.21-5.37,4.74-9.56,10.11-9.34,5.22.15,9.56,4.73,9.34,10.11-3.86,98.03-139.16,114.04-144.91,114.68-.67.07-1.32.08-1.96.02Z"/>
    <path class="cls-78" d="M913.81,861.46c-4.6-.42-8.38-4.07-8.8-8.83-1.45-16.37-6.33-27.43-15.34-34.8-15.51-12.67-45.9-15.99-95.67-10.44-89.6,10.02-107.49-45.87-108.21-48.25-1.55-5.15,1.36-10.58,6.51-12.13,5.12-1.55,10.52,1.33,12.11,6.43.61,1.89,14.84,42.72,87.44,34.62,56.83-6.35,89.78-1.96,110.16,14.71,13.15,10.76,20.48,26.51,22.4,48.15.48,5.36-3.48,10.08-8.83,10.56-.6.06-1.18.05-1.76,0Z"/>
    <path class="cls-78" d="M823.91,804.92c-4.53-.41-8.28-3.96-8.78-8.65-.13-1.19-2.88-29.2,12.86-46.88,8.06-9.05,19.14-13.7,32.93-13.84,5.43-.04,9.78,4.28,9.83,9.64.05,5.37-4.27,9.78-9.64,9.83-8.16.08-14.23,2.46-18.54,7.27-8.32,9.28-8.65,26.21-8.08,31.95.53,5.34-3.35,10.12-8.69,10.67-.64.07-1.28.06-1.9,0Z"/>
    <path class="cls-78" d="M945.67,776.4c-.85-.08-1.71-.27-2.55-.59-5.03-1.89-7.58-7.5-5.68-12.54,8.19-21.77,6.63-39.63-4.61-53.09-14.52-17.37-41.82-23.48-55.12-21-6.86,1.25-18.55,7.52-30.92,14.15-32.04,17.17-71.91,38.52-101.08,17.19-30.52-22.32-68.97-6.28-69.36-6.11-4.94,2.11-10.67-.18-12.78-5.12-2.11-4.94.18-10.67,5.12-12.78,1.99-.85,49.14-20.5,88.51,8.3,19.29,14.1,53.16-4.04,80.39-18.64,14.35-7.7,26.74-14.33,36.61-16.15,17.65-3.21,53.22,3.33,73.57,27.68,11.05,13.23,21.4,36.53,7.89,72.43-1.58,4.19-5.73,6.65-9.99,6.27Z"/>
    <path class="cls-78" d="M1061.52,826.62c-5.26-.48-9.19-5.08-8.82-10.38,1.4-19.84-3.41-34.37-14.71-44.42-27.59-24.53-83.94-14.17-84.51-14.07-5.29,1.02-10.38-2.47-11.38-7.75-1-5.28,2.46-10.38,7.75-11.38,2.7-.51,66.41-12.18,101.07,18.65,15.89,14.13,23.02,34.42,21.2,60.33-.38,5.36-5.03,9.4-10.4,9.03-.07,0-.13-.01-.2-.02Z"/>
    <path class="cls-78" d="M1053.53,786.24c-2.82-.26-5.5-1.73-7.2-4.27-3-4.46-1.81-10.51,2.65-13.5,46.06-30.93,82.52-25.43,102.49-17.71,1.66-28.16,18.37-48.64,19.22-49.67,3.44-4.13,9.57-4.69,13.71-1.27,4.13,3.43,4.7,9.55,1.29,13.68-.3.36-19.31,24.07-13.91,52.07l4.96,25.71-20.55-16.23c-1.51-1.16-38.97-28.94-96.36,9.58-1.93,1.3-4.16,1.81-6.3,1.62Z"/>
    <path class="cls-78" d="M1038.51,721.16c-51.08-4.66-92.48-63.44-110.92-103.13-4.75-10.21-16.69-18.6-33.62-23.62-23.07-6.84-50.69-5.59-64.28,2.91-9.61,6.01-95.06,57.53-135.23,15.52-24.64-25.76-49.92-15.04-50.17-14.92-4.92,2.18-10.67-.06-12.83-4.98-2.17-4.92.06-10.67,4.98-12.83,1.54-.67,38.14-16.22,72.09,19.28,24.02,25.12,83.01-1.17,110.85-18.58,18.41-11.51,51.35-13.62,80.13-5.06,22.36,6.63,38.6,18.74,45.74,34.09,17.85,38.41,65.2,106.56,116.66,89.33,13.56-4.53,27.47-10.41,42.2-16.64,50.14-21.2,106.95-45.22,149.82-7.74,4.04,3.54,4.46,9.69.92,13.74-3.54,4.05-9.68,4.46-13.74.92-33.7-29.48-80.19-9.82-129.42,11.01-14.42,6.1-29.33,12.4-43.61,17.18-10.14,3.38-20.02,4.4-29.56,3.53Z"/>
    <path class="cls-78" d="M1004.89,701.15c-4.49-.41-8.24-3.92-8.78-8.58-3.71-32.05,15.79-62.77,31.45-87.45,8.07-12.71,15.69-24.72,17.01-32.37,2.65-15.36-25.38-39.01-36.12-46.06-1.14-.69-2.16-1.63-2.97-2.8-3.05-4.43-1.94-10.49,2.49-13.54,3.23-2.23,7.54-2.27,10.84-.15.51.32,50.64,32.81,44.94,65.86-1.98,11.49-10.22,24.47-19.76,39.49-14.75,23.24-31.47,49.58-28.55,74.79.62,5.34-3.21,10.17-8.55,10.79-.68.08-1.35.08-2.01.02Z"/>
    <path class="cls-78" d="M1106.23,669.52c-1.26-.12-2.52-.48-3.72-1.12-4.74-2.54-6.51-8.45-3.97-13.18,58.74-109.41,25.3-138.67,24.95-138.94-4.31-3.21-5.19-9.31-1.97-13.62,3.21-4.3,9.31-5.2,13.62-1.97,5,3.74,46.96,40.07-19.44,163.74-1.9,3.54-5.69,5.44-9.47,5.09Z"/>
    <path class="cls-78" d="M1264.82,607.3c-.75-.07-1.5-.22-2.25-.48-1.7-.57-42.09-14.65-79.85-58.71-3.5-4.09-3.02-10.23,1.06-13.73,4.09-3.51,10.23-3.02,13.73,1.05,34.09,39.78,70.98,52.83,71.35,52.96,5.08,1.75,7.79,7.28,6.05,12.36-1.48,4.33-5.71,6.94-10.08,6.55Z"/>
    <path class="cls-78" d="M812.09,605.46c-1.5-.14-2.98-.62-4.34-1.48-4.53-2.89-5.87-8.9-2.98-13.44,14.65-23.04,31.06-61.78,21.68-75.8-2.99-4.47-1.79-10.52,2.68-13.51,4.47-2.99,10.51-1.8,13.51,2.68,20.11,30.07-17.14,90.31-21.45,97.08-2.02,3.18-5.59,4.78-9.1,4.46Z"/>
    <path class="cls-78" d="M943.58,639.22c-4.76-.43-8.59-4.32-8.82-9.22-.26-5.34,3.83-9.87,9.15-10.19,2.42-.19,22.78-2.74,24.14-34.98.23-5.37,4.77-9.54,10.14-9.32,5.26.27,9.54,4.76,9.32,10.14-1.73,40.86-28.59,52.93-42.55,53.6-.46.02-.92.01-1.37-.03Z"/>
    <path class="cls-69" d="M1204.27,387.13c-211.73-20.99-625.13-87-640.02-27.09-2.25,9.07-4.19,26.95-5.6,50.96,43.65,2.26,87.89-5.92,87.89-5.92-16.46,77.04,90.06,45.92,90.06,45.92,46.85,89.1,131.37,26.13,131.37,26.13,76.1,115.34,182.05,16.62,182.05,16.62,59.89,66.73,127.19-16.67,127.19-16.67,98.28,41.96,129.46-24.31,129.46-24.31,20.76,3.04,42.5,3.27,63.38.89-1.96-39.97,15.79-48.51-165.78-66.52Z"/>
    <path class="cls-69" d="M564.39,358.48c-14.89,59.91-16.04,502.79,58.85,577.18,0,0,16.43,23.89,48.31,42.5,13.93-12.97,25.19-28.28,32.17-44.58,23.96-55.94-29.64-145.66-29.64-145.66,0,0,46.28-48.14-17.33-108.4,0,0,74.42-29.34-21.16-100.9,0,0,80.89-60.17,11.66-127.75,0,0,29.97-75.93-28.83-114.8-31.25,3.18-50.98,10.16-54.03,22.41Z"/>
    <path class="cls-66" d="M625.61,783.49s46.28-48.14-17.34-108.4c0,0,74.42-29.34-21.16-100.9,0,0,80.89-60.16,11.66-127.75,0,0,30.62-77.32-30.27-115.87-60.89-38.55-123.51,28-120.55,64.4,2.96,36.4,15.13,57.93,15.13,57.93,0,0-61.35,52.52,11.15,118.83,0,0-83.16,67.81-12.8,140.21,0,0-37.84,70.38,13.84,123.79,0,0-47.5,141.76,17.64,168.13,65.14,26.37,138.38-18.79,162.34-74.72,23.96-55.94-29.64-145.66-29.64-145.66Z"/>
    <path class="cls-69" d="M1230.03,868.92c82.72-102.87,160.72-334.03,143.75-394.15-15.77-55.86,34.19-66.8-128.44-84.91,2.21,26.63,16.52,53.9,28.17,62.84,0,0-39.11,67.12-3.58,108.06,0,0-25.8,58.91,8.04,83.99,0,0-72.67,38.92-48.05,113.43,0,0-82.71-5.98-73.1,60.88,0,0-72.79-28.64-90.51,27.87,0,0-74.5-9.94-83.01,31.7,0,0-142.47-39.71-158.66,86.06,0,0-26.79,6.11-34.43,30.55,35.48-7.92,76.38-27.2,122.54-64.57,0,0,234.58,41.13,317.29-61.74Z"/>
    <path class="cls-66" d="M882.6,1260.94l29.86,68.7,19.99-64.15s115.01-20.92,39.71-142.47c0,0,33.87-44.04,6.12-84.27,0,0,33.85,7.8,57.66-29.3,0,0,52.8,75.51,145.32-8.73,0,0,72.21,69.43,124.38-71.91,0,0,129.6-8.59,81.2-132.4,0,0,78.63-52.52,9.39-120.1,0,0,70.41-48.55,27.09-107.49,2.27-7.65,50.43-39.38,26.16-90.29,0,0,90.33-101.72-54.69-130.66-145.02-28.94-101.59,97.55-73.69,118.95,0,0-39.11,67.12-3.58,108.06,0,0-25.8,58.91,8.04,83.99,0,0-72.67,38.92-48.05,113.43,0,0-82.71-5.98-73.1,60.88,0,0-72.79-28.64-90.51,27.87,0,0-74.5-9.94-83.01,31.7,0,0-142.47-39.71-158.66,86.06,0,0-64.17,14.57-22.27,89.08,0,0-63.47,41.33-35.45,113.01,28.02,71.68,68.1,80.05,68.1,80.05Z"/>
    <path class="cls-75" d="M872.26,982.33c-2.96-.27-5.76-1.89-7.42-4.62-2.81-4.58-1.36-10.58,3.22-13.38,4.23-2.6,100.3-60.66,157.94-33.7,14.52-14.26,55.6-48.45,100.66-30.23,12.67-16.67,38.19-35.06,71.95-21.7,14.31-21.55,58.99-81.72,111.67-81.65.94-27.26,6.86-98.8,42.38-129.12-4.56-19.32-15.93-76.89,1.47-109.34-3.61-18.81-9.85-61.91,3.65-83.18-16.14-13.77-50.23-46.06-61.08-81.29-1.58-5.14,1.3-10.59,6.44-12.17,5.13-1.6,10.59,1.3,12.17,6.44,12.27,39.82,62.3,78.1,62.8,78.48l12.25,9.29-13.64,7.1c-9.76,5.08-9.3,43.65-2.79,75.08l.81,3.9-2.15,3.35c-16.09,25-5.13,83.28.46,103.62l1.85,6.74-5.8,3.91c-33.5,22.55-39.88,99.76-39.52,127.6l.15,11.65-11.49-1.93c-54.65-9.04-107.08,78.01-107.61,78.89l-4.74,7.99-8.2-4.35c-37.57-19.99-58.2,16.26-59.06,17.81l-4.69,8.46-8.49-4.64c-44.44-24.24-89.75,27.24-90.21,27.76l-5.49,6.35-7.09-4.5c-38.34-24.34-117.27,13.39-144.44,29.99-1.86,1.13-3.94,1.57-5.95,1.39Z"/>
    <path class="cls-75" d="M589.71,327.99c4.11,4.34,5.31,7.27,7.18,11.07,1.61,3.62,2.59,7.31,3.45,11,1.27,7.36,1.58,14.73.66,21.71-1.57,14.08-6.22,26.91-11.63,39.07-5.83,11.9-12.43,23.26-19.84,33.91-7.29,10.76-15.42,20.74-23.52,30.74h0s.42-12.04.42-12.04c6.27,8.42,10.08,16.38,13.04,25.65,2.82,9.09,4.28,18.87,3.72,28.68-.61,9.73-2.44,19.7-6.33,28.65-1.57,4.72-4.15,8.75-6.31,13.14-2.41,4.17-5.2,8-7.86,12.02l-.03.04-.93-22.01c5.5,5.82,9.24,10.62,13.15,16.32,3.85,5.5,7.22,11.31,10.35,17.27,6.14,11.98,10.65,25.01,13.03,38.61,1.44,6.76,1.61,13.75,2,20.67-.39,6.94-.37,13.96-1.88,20.76-1.98,13.85-7.28,26.67-13.07,38.93l-.02.04-2-18.84c1.89,2.44,2.65,3.69,3.72,5.43,1.04,1.64,1.89,3.25,2.73,4.86,1.72,3.24,3.13,6.49,4.41,9.8,2.54,6.6,4.38,13.36,5.51,20.18,2.38,13.64,2.03,27.39-.06,40.55-2.04,13.23-6.43,25.6-11.42,37.45-2.6,5.87-5.71,11.42-8.56,17.12l-9.98,16.02-.02.04-2.97-18.24c10.95,9.72,18.28,19.36,25.67,30.15,3.33,5.48,6.91,10.8,9.61,16.61l4.31,8.55,3.55,8.88c9.35,23.74,13.44,49.15,13.47,74.22l-.86,18.76c-.42,6.23-1.75,12.32-2.6,18.48-1.36,12.43-5.48,24.12-8.43,36.09-3.6,11.76-8.45,23.03-12.64,34.53l-16.04,32.82c-2.36,4.82-8.18,6.82-13,4.46-4.74-2.31-6.75-7.97-4.59-12.74l.36-.79,14.37-31.62c3.59-10.93,7.89-21.66,10.92-32.68,2.37-11.16,5.97-22.12,6.82-33.43.6-5.62,1.7-11.22,1.91-16.84l.29-16.85c-.68-22.37-4.93-44.48-13.58-64.75l-3.25-7.58-3.94-7.24c-2.43-4.94-5.67-9.37-8.61-13.98-3.24-4.36-6.42-8.85-10.09-12.78-3.36-4.03-7.66-8.06-10.8-10.74l-8.99-7.69,6.02-10.55.02-.03,8.11-14.47c2.17-5,4.66-9.89,6.61-14.92,3.68-10.1,6.8-20.33,7.85-30.6,1.12-10.23.85-20.41-1.29-29.99-1.02-4.8-2.54-9.44-4.45-13.78-.95-2.16-2-4.3-3.16-6.22-.97-1.81-2.71-4.19-3.08-4.62l-6.59-7.63,4.59-11.21v-.03c4.41-9.36,8.61-18.86,10.03-28.84,1.24-4.92,1.11-9.97,1.57-14.98-.33-5.02-.27-10.07-1.34-15.07-1.64-10.01-4.89-19.94-9.59-29.34-2.41-4.67-5-9.28-7.99-13.63-2.76-4.27-6.5-8.88-9.18-11.82l-9.56-10.5,8.63-11.51.02-.03c2.23-2.65,4.75-5.2,6.88-7.94,1.82-2.85,4.27-5.53,5.65-8.58,3.64-5.85,5.6-12.28,7.02-18.89,1.34-6.64,1.27-13.62.11-20.57-1.04-6.78-3.77-14.3-6.67-19.65l-3.95-7.3,4.37-4.75h.01c7.73-9.57,15.49-19.1,22.32-29.18,6.97-10,12.99-20.45,18.26-31.13,4.79-10.78,8.71-21.91,9.91-32.89.76-5.5.41-10.82-.39-15.85-.6-2.42-1.21-4.83-2.18-6.97-.43-1.09-1.03-2.03-1.53-3.01-.45-.76-1.43-2.01-1.25-1.83-3.89-3.71-4.04-9.87-.34-13.76,3.71-3.89,9.87-4.04,13.76-.34Z"/>
    <path class="cls-60" d="M650.21,364.74s-164.59,30.53-172.07-42.41c-7.48-72.94,38.14-108.05,97.05-99.53,0,0,96.34-47.76,145.45,28.98,0,0,56.81-59.22,122.93,8.08,0,0,51.71-32.98,98.01,10.52,0,0,43.35-27.46,97.02,4.14,0,0,56.95-38.79,105.38-1.38,0,0,45.2-47.71,101.41,7.68,0,0,47.2-86.8,138.23.05,0,0,90.91-30.98,102.51,39.2,11.6,70.18-90.53,104.84-175.78,92.35,0,0-31.18,66.27-129.46,24.31,0,0-67.31,83.4-127.19,16.67,0,0-105.95,98.72-182.05-16.62,0,0-84.52,62.98-131.37-26.13,0,0-106.52,31.12-90.06-45.92Z"/>
    <path class="cls-75" d="M801.6,348.8l-4.64-4.25c-48.66-44.46-121.88-44.85-122.61-44.86h-4.82s-2.94-3.82-2.94-3.82c-30.23-39.54-94.15-63.73-94.79-63.97-5.04-1.88-7.59-7.49-5.72-12.53,1.88-5.03,7.47-7.59,12.52-5.72,2.76,1.03,66.09,25.01,100.5,66.67,17.73.77,79.63,6.23,126.53,45.93,15.04-4.78,56.25-13.94,102.48,9.71,18.77-8.67,88.17-36.86,127.32-.2,19.56-9.68,75.9-31.74,126.13,4.95,15.26-12.15,54.72-38.55,89.34-19.34,24.67-18.81,71.82-38.94,111.3-8.22,18.88-15.43,73.91-53.76,122.09-22.06,4.49,2.95,5.74,8.99,2.78,13.48-2.96,4.49-8.99,5.76-13.48,2.78-45.26-29.74-104.09,25.16-104.68,25.72l-6.72,6.37-6.7-6.39c-41.99-40.08-95.24,5.66-97.48,7.64l-5.91,5.18-6.32-4.68c-31.23-23.23-76.87,18.77-77.33,19.19l-6.32,5.9-6.61-5.57c-52.08-44.02-114.26-6.23-116.88-4.61l-7.2,4.47-5.44-6.5c-32.87-39.46-112.84,1.04-113.66,1.45l-4.63,2.38-4.55-2.52c-50.54-28.04-95.35-9.3-95.8-9.1l-5.78,2.49Z"/>
    <path class="cls-78" d="M1195.28,649.38c-18.71-1.7-42.52-8.64-72.21-25.25-4.69-2.63-6.36-8.56-3.74-13.25,2.63-4.69,8.55-6.35,13.25-3.74,59.26,33.17,89.18,22.8,99.3,16.8.11-.06.79-.45.89-.52,4.74-2.57,10.64-.81,13.2,3.91,2.55,4.71.82,10.59-3.86,13.17-9.03,5.35-24.19,10.94-46.84,8.87Z"/>
  </g>
  <g>
    <path class="cls-41" d="M753.8,871.08s-10.13-5.25-17.85,15.21c-7.72,20.45-8.12,52.33-5.34,63.19,0,0-22.42,24.14-4.1,39.91,0,0,25.24,26.55,26.91,33.39.65-1.6,11.48-21.11,29.03-22.19,17.55-1.09,60.81-46.53,37.74-53.58,0,0,1.72,7.35-6.15,5.58-7.87-1.77-2.91-28.87-2.99-38.45-.08-9.59-5.85-33.21-22.64-43.23-16.79-10.02-36.11-9.32-34.61.19Z"/>
    <path class="cls-94" d="M782.45,934.15s3.63,13.5,6.01,15.31c0,0,2.39,6.23-4.65,23.83-7.04,17.6-24.86,7.77-27.71,2.97-2.85-4.8-9.14-14-3.4-23.14,0,0,7.86-5.71,3.76-18.12,0,0,24.75-4.99,25.99-.85Z"/>
    <path class="cls-91" d="M753.39,935.31s11.93,9.25,21.68,5.68c9.75-3.57,18.4-13.01,21.07-22.45,2.67-9.44-1.67-28.39-8.23-35.13-6.56-6.74-30.94-11.17-37.79-2.39-6.85,8.78-9.51,44.19,3.27,54.28Z"/>
    <g>
      <path class="cls-44" d="M747.95,925.39c1.13,8.15,10.21,16.18,23.74,16.18s22.97-8.82,24.25-16.95c.92-5.84-3.55-7.57-9.97-9.41-4.17-1.19-9.28-2.57-14.61-2.57s-8.9,1.46-13,2.68c-6.17,1.84-11.32,3.56-10.42,10.07Z"/>
      <path class="cls-67" d="M785.76,916.71c-4.17-1.19-9.28-2.57-14.61-2.57s-8.9,1.46-13,2.68c-5.27,1.57-9.58,3.92-10.22,8.38-.77-6.35,4.33-8.06,10.44-9.88,4.09-1.22,7.6-2.68,13-2.68s10.44,1.38,14.61,2.57c6.34,1.81,10.78,3.53,10,9.19-.64-3.84-4.85-6.16-10.21-7.69Z"/>
      <path class="cls-51" d="M783.93,928.17s-12.35-5.89-25.99,0c0,0,13.42-2.46,25.99,0Z"/>
      <path class="cls-51" d="M786.08,922.52s-14.39-5.89-30.29,0c0,0,15.64-2.46,30.29,0Z"/>
    </g>
    <path class="cls-83" d="M907.02,1037.76s34.97-2.41,35.66-5.68c.69-3.28,4.74-16.73-2.18-21.38,0,0-2.37,1.53-3.24,3.86-.87,2.33-7.96,3.96-7.9.41.02-1.17.25-2.37.53-3.42.42-1.55-1.42-2.78-2.75-1.83-.04.03-.09.06-.13.1-3.29,2.4-6.73,4.88-8.7,10.04-1.97,5.16-10.64,5.08-10.64,5.08l-.64,12.82Z"/>
    <path class="cls-24" d="M783.73,975.2s37.85,87.59,136.89,62.36l-4.99-17.04s-64.86,23.3-97.79-56.84c0,0-15.72-16.93-34.11,11.52Z"/>
    <path class="cls-56" d="M783.73,975.2c2.44-3.78,4.84-6.74,7.16-9.07,12.33,4.28,20.92,38.69,46.39,58.74,29.06,22.88,79.63,0,79.63,0h0l3.71,12.68c-99.04,25.23-136.89-62.36-136.89-62.36Z"/>
    <path class="cls-56" d="M733.35,1101.22s-26.88,15.48-28.36,23.28l29.62-10.14-1.27-13.14Z"/>
    <path class="cls-101" d="M791.25,1374.17c-3.07-8.32,4.29-23.54,5.06-45.43,1.22-34.78,9.75-110.51,9.75-110.51,0,0-23.42-2.96-29.69,4.28-6.27,7.24-3.83,70.71-4.46,76.89-.75,7.3,1.89,68.56-1.26,74.77h20.61Z"/>
    <path class="cls-101" d="M744.51,1368.92c-.09.67-1.2,4.38-.89,5.25h0s-18.8,0-18.8,0c2.28-5.81,6.85-70.09,6.22-92.19-.63-22.1-2.46-58.14-2.46-58.14l41.01-1.23s-7.29,35.44-7.92,46.68c-.63,11.24-16.39,94.2-17.13,99.63Z"/>
    <path class="cls-34" d="M808.09,1108.67s10.2,74.4.3,121.82c0,0-71.74,5.67-85.22-1.87,0,0-12.73-91.04,3.74-127.41l81.18,7.45Z"/>
    <path class="cls-43" d="M723.17,1228.63s-.6-4.3-1.37-11.39c6.05,3.14,20.17,8.66,40.62,5.37,27.77-4.47,34.16-62.17,30.89-89.31-1.22-10.14-4.64-19.28-8.45-26.76l23.23,2.13s10.2,74.4.3,121.82c0,0-71.74,5.67-85.22-1.87Z"/>
    <path class="cls-27" d="M790.66,1367.89s7.85,7.47,22.43,10.49c14.58,3.02,11.8,9.79,11.8,9.79l-55.16-2.99s-1.13-11.35,2.98-17.52l17.96.24Z"/>
    <path class="cls-27" d="M744.25,1367.89s7.85,7.47,22.43,10.49c14.58,3.02,11.8,9.79,11.8,9.79l-55.16-2.99s-1.13-11.35,2.98-17.52l17.96.24Z"/>
    <path class="cls-51" d="M758.2,950.74s20.87,9.14,30.98-1.28c0,0,43.75,43.83,18.92,158.81,0,0-83.44,4.31-85.1,4.59-1.65.29,5.99-24.93,15.75-31.93,9.69-6.95,65.69-39.21,19.23-128.35-.32-.6-.27-.96.22-1.84Z"/>
    <path class="cls-38" d="M750.36,1111.23c66.04-14.99,45.63-82.53,47.88-96.06,1.88-11.26-16.77-48.5-23.11-60.73,5.08.05,10.3-1.13,14.04-4.98,0,0,43.75,43.83,18.92,158.81,0,0-33.16,1.71-58.09,3.05.12-.03.23-.06.35-.08Z"/>
    <path class="cls-24" d="M757.58,950.49s-14.15,1.47-28.18,9.08c-2.15,1.17-3.77,3.05-4.58,5.28l-1.74,12.43c-4.95,13.28.2,43.35.2,43.35,1.38,2.81-2.77,27.99-2.77,27.99l1.66,22.23-2.49,2.44c-19.2,20.17-22.82,58.07-22.82,58.07l8.14-6.84c26.03-20.99,57.5-43.53,74.74-79.75,23.96-50.37-22.16-94.27-22.16-94.27Z"/>
    <path class="cls-56" d="M700.72,1111.23c3.24-12.25,8.99-27.48,18.96-37.95l2.49-2.44-1.66-22.23s4.15-25.19,2.77-27.99c0,0-4.76-27.95-.66-41.84,3.06,3.81,4.88,8.04,3.98,12.49-3.33,16.43,4.4,80.4,4.4,80.4l-30.28,39.57Z"/>
    <polygon class="cls-73" points="755.43 950.47 773.94 965.77 776.89 954.87 762.05 950.69 755.43 950.47"/>
    <path class="cls-73" d="M788.46,949.46l-10.86,4.98,10.27,11.81s4.98-12.08.59-16.78Z"/>
    <path class="cls-24" d="M822.78,984.53s-1.31-8.35-4.14-19.36c-.81-3.16-2.92-6.92-5.84-8.73-6.34-3.91-16.5-5.85-24.34-6.99,0,0,21.76,82.92,20.28,146.09-1.06,5.56-1.52,10.37-.64,12.72,0,0,5.18,2.04,14.08,8,8.16,5.47-3.17-41.35-5.09-49.1,5.27-30.13,8.78-51.3,5.7-82.65Z"/>
    <g>
      <path class="cls-36" d="M749.53,1015.17l18.45-2.03-.03-.28c-.51-4.32-5.06-7.37-10.16-6.81h0c-5.1.56-8.81,4.51-8.3,8.83l.03.28Z"/>
      <path class="cls-36" d="M794.13,1096.17l-55.9,6.61c-2.47.29-4.65-1.42-4.86-3.83l-6.76-77.65c-.21-2.4,1.63-4.59,4.1-4.89l55.9-6.61c2.47-.29,4.65,1.42,4.86,3.83l6.76,77.65c.21,2.41-1.63,4.59-4.1,4.89Z"/>
      <path class="cls-43" d="M791,1096.54l-52.88,6.25c-2.41.29-4.53-1.38-4.73-3.73l-6.77-77.87c-.2-2.34,1.59-4.48,4-4.76l52.88-6.25c2.41-.28,4.53,1.39,4.73,3.73l6.78,77.87c.2,2.34-1.59,4.48-4,4.76Z"/>
    </g>
    <path class="cls-83" d="M755.05,1071.64c.4-.34,4.34.51,5.31.73h0s6.72-4.16,10.8-1.68c4.08,2.48,9.94-1.56,11.86-.6,1.92.97,2.23,1.82,1.93,3.18-.3,1.36-2.83,1.76-5.51,2.77-2.67,1.01-5.3,3.45-5.3,3.45,0,0,3.74-2.85,5.66-2.56,2.15.33,6.67-.14,6.67-.14,0,0,4.51-6.11,7.23-4.83,2.73,1.28-2.63,9.2-6.13,11.03-3.51,1.83-14.45,3.26-16.56,3.18-2.02-.08-9.83-2.34-11.04-3.21-.67.26-4.56,1.75-5.12,1.29-.61-.5-.26-12.22.2-12.6Z"/>
    <path class="cls-24" d="M757.69,1086.72c3.89.82,4.55-20.98,4.55-20.98,0,0-44.66-4.93-47.12-12.4-2.46-7.47,28.67-64.34,29.56-68.42.61-2.81,4.69-12.4-1.24-20.61-3.74-5.18-10.05-6.26-14.79-2.82-3.34,2.43-6.37,5.27-8.83,8.6-15.04,20.42-38.98,93.09-33.86,98.14,5.85,5.77,42.55,14.04,42.55,14.04,0,0,24.49,3.46,29.18,4.45Z"/>
    <g>
      <path class="cls-2" d="M809.85,996.12c.02-2.47-.24-4.98-.5-6.87l.86-.13c.26,1.92.52,4.47.5,6.97-.03,5.32-2.4,5.88-2.5,5.9l-.14-.88h0s1.76-.51,1.78-4.99Z"/>
      <path class="cls-2" d="M785.09,988.1c-.41,1.86-.86,4.27-1.05,6.65-.36,4.47,1.33,5.01,1.35,5.02h0s-.22.87-.22.87c-.1-.02-2.41-.62-1.98-5.93.2-2.41.65-4.86,1.06-6.75l.85.14Z"/>
      <g>
        <path class="cls-80" d="M805.87,999.48l1.29.07c.88.04,1.53.82,1.45,1.74h0c-.08.91-.85,1.62-1.73,1.57l-1.29-.07c-.88-.05-1.53-.82-1.45-1.74h0c.08-.91.85-1.62,1.73-1.57Z"/>
        <path class="cls-49" d="M804.14,1001.06h0c-.08.91.57,1.69,1.45,1.74l1.29.07c.69.04,1.31-.38,1.59-1,0,0-3.34.44-3.74-1.14-.07-.26-.11-.48-.15-.67-.24.27-.41.62-.44,1.02Z"/>
        <path class="cls-3" d="M805.18,999.61c1.99-.09,3.27.79,3.27.79h0c-.24-.48-.71-.82-1.29-.85l-1.29-.07c-.24-.01-.48.03-.69.12h0Z"/>
      </g>
      <g>
        <path class="cls-80" d="M787.71,998.55l-1.29-.07c-.88-.05-1.66.66-1.73,1.57h0c-.08.91.57,1.69,1.45,1.74l1.29.07c.88.05,1.66-.66,1.73-1.57h0c.08-.91-.57-1.69-1.45-1.74Z"/>
        <path class="cls-49" d="M789.16,1000.28h0c-.08.91-.85,1.62-1.73,1.57l-1.29-.07c-.68-.03-1.23-.51-1.4-1.16,0,0,3.24.78,3.9-.75.11-.25.2-.46.27-.65.19.3.29.66.26,1.05Z"/>
        <path class="cls-3" d="M788.38,998.74c-1.96-.3-3.38.45-3.38.45h0c.32-.45.85-.74,1.42-.71l1.29.07c.24.01.47.08.67.19h0Z"/>
      </g>
      <path class="cls-40" d="M797.84,979.71c-.24-.01-.47-.02-.72-.03-2.67-.08-5.03.33-7.03,1.21-1.63.72-3.01,1.75-4.11,3.06-1.88,2.25-2.27,4.54-2.29,4.64-.08.47.23.9.68.97.45.06.88-.27.96-.74,0-.02.35-1.97,1.94-3.83,2.13-2.5,5.41-3.71,9.73-3.58,8.88.25,10.41,4.14,11.64,7.26.25.64.3,1.38.59,1.93.21.41.71.56,1.12.32.41-.24.44-.71.35-1.18-.1-.58-.28-1.18-.52-1.78-1.3-3.29-3.06-7.77-12.35-8.25Z"/>
    </g>
    <g>
      <g>
        <path class="cls-71" d="M756.11,988.7c-1.42-2.42-4.53-3.23-6.94-1.81-2.42,1.42-3.23,4.53-1.81,6.94,1.42,2.42,4.53,3.23,6.94,1.81,2.42-1.42,3.23-4.53,1.81-6.94Z"/>
        <path class="cls-68" d="M754.25,989.79c-.82-1.39-2.6-1.86-3.99-1.04-1.39.81-1.86,2.6-1.04,3.99.82,1.39,2.6,1.86,3.99,1.04,1.39-.82,1.86-2.6,1.04-3.99Z"/>
        <path class="cls-71" d="M749.86,983.59h.14c.58,0,1.05.47,1.05,1.05v2.12c0,.58-.47,1.06-1.06,1.06h-.14c-.58,0-1.05-.47-1.05-1.05v-2.12c0-.58.47-1.06,1.06-1.06Z" transform="translate(-246.96 250.7) rotate(-16.33)"/>
      </g>
      <path class="cls-40" d="M750.13,985.36c.4-.24.6-.74.46-1.21-.04-.13-4.01-13.35.55-21.26.29-.5.11-1.15-.39-1.43-.5-.3-1.15-.13-1.44.39-5.01,8.7-.91,22.35-.73,22.92.17.55.76.87,1.32.7.08-.03.16-.06.23-.1Z"/>
    </g>
    <path class="cls-42" d="M739.83,965.61s-9.78,3.79-15.34-3.76c-5.56-7.55,3.77-12.09,3.77-12.09,0,0-6.07,7.64,2.78,8.6,8.84.96,8.9-13.89,5.79-22.08-8.97-23.66-3.77-39.22.38-47.69,4.15-8.48,11.54-14.68,11.54-14.68l5.05-2.82,3.5,8.59s-6.37,9.73-9.59,18.7c-3.22,8.97-4.6,20.5,2.96,35.36,7.55,14.86,9.44,29.46-10.84,31.89Z"/>
    <path class="cls-26" d="M757.31,879.67l-3.5-8.59h0s-10.13-5.25-17.85,15.21c-2.65,7.03-4.04,15.46-4.6,23.94,3.47,12.71,13.29,27.37,18.64,39.82,6.75,15.72-13.91,11.52-13.91,11.52,0,0,6.88,11.65,17.23,2.68,11.38-9.87,1.45-26.15-2.89-34.67-4.34-8.52-3.61-24.67.55-33.85,4.17-9.18,6.34-16.05,6.34-16.05Z"/>
    <path class="cls-40" d="M798.64,981.42h.03c.6-.02,1.06-.52,1.05-1.12-.6-19.05-10.45-32.77-10.87-33.34-.35-.49-1.02-.59-1.51-.24-.48.35-.59,1.03-.24,1.51.1.13,9.88,13.77,10.45,32.13.02.59.5,1.05,1.08,1.05Z"/>
    <path class="cls-42" d="M757.31,879.67s23.12-6.13,34.73,21.86c11.61,27.99-5.06,40.88-2.12,49.51,2.93,8.63,10.8,9.87,17.57.99,0,0-8.31,5.36-9.55-.69-1.24-6.05,12.57-14.91,11.31-38-.44-8.11-1.76-15.09-3.27-20.73-3.55-8.34-9.19-16.72-17.56-21.72-16.79-10.02-36.11-9.32-34.61.19l3.5,8.59Z"/>
    <path class="cls-56" d="M746.84,1079.01c6.26-5-5.04-16.22-5.09-16.26,10.68,1.92,20.48,3,20.48,3,0,0-.66,21.8-4.55,20.98-4.69-.99-29.18-4.45-29.18-4.45,0,0-7.08-1.6-15.51-3.87.08.02,27.59,5.61,33.85.61Z"/>
  </g>
  <g>
    <path class="cls-54" d="M104.91,1211.05h213.31c12.64,0,22.9,10.26,22.9,22.9v124.92c0,12.64-10.26,22.9-22.9,22.9H104.91c-12.64,0-22.9-10.26-22.9-22.9v-124.92c0-12.64,10.26-22.9,22.9-22.9Z"/>
    <rect class="cls-23" x="82.01" y="1218.42" width="249.59" height="163.34" rx="21.98" ry="21.98"/>
    <path class="cls-63" d="M85.65,1371.55c3.69,6.16,9.83,10.21,16.79,10.21h208.75c6.96,0,13.1-4.04,16.79-10.21H85.65Z"/>
    <g>
      <path class="cls-100" d="M247.65,1296.5c.1,22.55-18.1,40.92-40.65,41.02-22.55.1-40.92-18.09-41.02-40.65-.1-22.55,18.09-40.92,40.65-41.02,22.55-.1,40.92,18.09,41.02,40.65Z"/>
      <g>
        <rect class="cls-88" x="198.36" y="1270.28" width="16.44" height="54.38" transform="translate(-5.9 .95) rotate(-.26)"/>
        <rect class="cls-88" x="179.4" y="1289.25" width="54.38" height="16.44" transform="translate(-5.99 .97) rotate(-.26)"/>
      </g>
    </g>
    <rect class="cls-48" x="273.9" y="1206.82" width="29.36" height="7.6" rx="2.48" ry="2.48"/>
    <rect class="cls-48" x="113.34" y="1206.82" width="29.36" height="7.6" rx="2.48" ry="2.48"/>
    <path class="cls-48" d="M180.52,1215.46v-26.24c0-.15.11-.27.24-.27h63.72c.14,0,.25.12.25.27v26.24h10.77v-26.24c0-6.6-4.94-11.96-11.01-11.96h-63.72c-6.07,0-11.01,5.37-11.01,11.96v26.24h10.77Z"/>
    <rect class="cls-61" x="108.56" y="1218.42" width="6.34" height="163.34"/>
    <rect class="cls-61" x="304.12" y="1218.42" width="6.34" height="163.34"/>
  </g>
  <g>
    <path class="cls-95" d="M313.2,949.03l2.5-13.67,30.23-1.85,3.38,16.98s-13.71,22.33-36.11-1.46Z"/>
    <path class="cls-46" d="M341.02,1351.47l-1.03,12.07s14.41,4.68,16.86,2.24c2.45-2.45,4.89-8.47,4.89-8.47v-8.65s-20.72,2.8-20.72,2.8Z"/>
    <polygon class="cls-46" points="285.05 1349.32 286.2 1362.38 305.53 1357.96 305.5 1346.22 285.05 1349.32"/>
    <path class="cls-39" d="M283.49,1128.58s0,34.24,2.45,53.8c2.45,19.56,7.34,68.47,4.89,83.14-2.25,13.48-8.63,72.41-9.64,89.45-.11,1.89,1.42,3.47,3.32,3.42,7.34-.19,23.99-1.04,25.89-4.84,2.45-4.89,14.67-78.25,17.12-92.93,2.45-14.67,7.34-26.9,7.34-26.9,0,0,2.44,19.56,2.44,34.24v86.51c0,2.12,1.84,3.77,3.95,3.51,6.68-.83,20-2.62,25.4-4.42,0,0,4.89-56.24,7.34-83.14,2.45-26.9,1.85-124.65-5.19-135.69-7.04-11.04-85.29-6.15-85.29-6.15Z"/>
    <g>
      <path class="cls-33" d="M281.18,1354.98c-.11,1.89,1.42,3.47,3.32,3.42,1.6-.04,3.64-.12,5.87-.24,3.04-27.57,14.24-106.31,16.35-123.19,1.83-14.61-6.56-76.56-10.92-106.97-7.43.29-12.31.59-12.31.59,0,0,0,34.24,2.45,53.8,2.45,19.56,7.34,68.47,4.89,83.14-2.25,13.48-8.63,72.41-9.64,89.45Z"/>
      <path class="cls-33" d="M340.96,1178.71c-2.44,9.78-7.17,57.87-7.17,57.87h0c.64-1.8,1.05-2.84,1.05-2.84,0,0,2.44,19.56,2.44,34.24v86.51c0,2.12,1.84,3.77,3.95,3.51,5.58-.69,15.78-2.06,22.13-3.54-4.6-.82-15.59-3.15-17.52-7-2.45-4.89,2.45-95.37,2.45-95.37-4.89-17.12-7.34-73.36-7.34-73.36Z"/>
    </g>
    <g>
      <path class="cls-93" d="M441.68,985.46s4.73-6.15,10.74-10.6c6-4.44,19.17-3.75,7.64-16.2-11.62-12.55-15.77-3.15-17.76.63-3,5.68,1.27,3.62-3.23,6.95-4.5,3.33-7.97,11.19-7.97,11.19l10.59,8.03Z"/>
      <path class="cls-99" d="M378.42,959.5s21.85,19.74,29.35,33.79c0,0,14.95-19.11,25.44-26.48,0,0,13.63,12.68,15.28,18.63,0,0-27.08,37.92-38.79,34.46-11.71-3.46-32.06-13.96-37.96-24.61-5.9-10.65-4.28-29.62,6.68-35.78Z"/>
      <path class="cls-64" d="M370.58,991.09c5.9,10.65,26.24,21.15,37.96,24.61,10.74,3.17,34.39-28.44,38.24-33.7.82,1.27,1.44,2.45,1.72,3.44,0,0-27.08,37.92-38.79,34.46-11.71-3.46-32.06-13.96-37.96-24.61-1.24-2.24-2.12-4.85-2.68-7.62.44,1.2.93,2.37,1.51,3.43Z"/>
    </g>
    <path class="cls-31" d="M312.07,946.97s24.71,11.36,36.68-1.6c0,0,49.43,46.51,20.02,189.36,0,0-85.64,2.04-87.6,2.4-1.96.36-3.7-19.72,7.86-28.42,11.48-8.63,77.8-48.71,22.78-159.46-.37-.75-.32-1.19.26-2.28Z"/>
    <path class="cls-6" d="M324.09,956.07l14.18,7.78s24.41,73.62-8.78,122.34l4.94,26.98,20.25-18.45s16.35-89.06-10.25-128.81c0,0,5.7-8.93.31-15.51l-20.65,5.68Z"/>
    <path class="cls-99" d="M311.34,946.65s-.24.03-.69.09c-1.27.18-2.52.41-3.75.69-7.17,2.48-26.18,11.03-29.1,32.87-3.61,27.01,6.42,86.42,2.31,105-4.08,18.46-21.43,49.3-20.8,75.14,11.15-1.46,38.75-6.3,47.44-19.09,7.73-11.37,11.24-44.94,18.17-70.16,1.25-3.22,2.37-6.54,3.31-9.99,16.35-60.08-16.89-114.56-16.89-114.56Z"/>
    <path class="cls-56" d="M305.27,948.02c-8.07,3.11-24.75,11.93-27.47,32.27-3.61,27.01,6.42,86.42,2.31,105-4.08,18.46-21.43,49.3-20.8,75.14,0,0,0,0,0,0,.33-.04.68-.09,1.03-.14.25-.04.52-.07.79-.11.11-.02.22-.03.34-.05.27-.04.56-.08.85-.13.12-.02.23-.03.36-.05.29-.04.59-.09.89-.14.13-.02.26-.04.39-.06.31-.05.63-.1.95-.16.13-.02.25-.04.38-.06.33-.06.67-.11,1.02-.17.13-.02.26-.04.39-.07.35-.06.7-.13,1.06-.19.13-.02.26-.05.39-.07.37-.07.74-.14,1.11-.21.13-.03.26-.05.39-.08.38-.07.77-.15,1.16-.23.13-.03.25-.05.38-.08.4-.08.79-.17,1.2-.25.13-.03.25-.05.38-.08.41-.09.82-.18,1.24-.28.11-.03.23-.05.34-.08.43-.1.87-.2,1.3-.31.1-.02.2-.05.3-.07.46-.11.91-.22,1.37-.34.07-.02.14-.04.21-.05.49-.12.98-.25,1.47-.38.03,0,.05-.02.08-.02,3.25-.88,6.56-1.91,9.74-3.13.03-.01.06-.02.09-.03.45-.17.9-.35,1.34-.53.1-.04.2-.08.3-.12.4-.17.8-.34,1.2-.51.14-.06.28-.12.42-.18.37-.16.74-.33,1.11-.5.13-.06.27-.12.4-.19,1.97-.98,3.83-2.02,5.52-3.12-17,6.08-36.16,8.88-36.16,8.88,3.1-27.64,16.93-45.85,25.92-60.66,9.7-15.99,3.38-63.95-1.72-103.88-.39-3.08-.55-6.04-.5-8.87.26-14.51,7.47-27.47,18.53-35.7Z"/>
    <polygon class="cls-73" points="309.61 946.89 331.56 965.1 335.06 951.92 317.48 946.86 309.61 946.89"/>
    <path class="cls-73" d="M348.75,945.37l-12.86,6.02,12.16,14.28s5.9-14.61.71-20.3Z"/>
    <path class="cls-99" d="M383.75,990.58s-1.13-10.24-2.68-24.06c-.45-4.02-4.3-13.53-10.34-16.13-8.21-3.53-12.7-3.61-21.98-5.02,0,0,24.92,103.01,23.16,181.5-1.26,6.9-1.8,12.88-.76,15.81,0,0,6.14,2.54,16.67,9.94,9.67,6.79-3.75-51.37-6.03-61,6.24-37.43,5.6-62.1,1.94-101.04Z"/>
    <path class="cls-37" d="M283.49,1363.34s19.56-7.34,24.45-4.89c0,0,0,4.89,2.45,7.34,2.45,2.44,17.12,17.12,14.67,19.56-2.45,2.45-26.9,4.89-41.57,0v-22.01Z"/>
    <path class="cls-37" d="M339,1363.47c-.92-.07-1.72.66-1.72,1.58v20.29s-2.44,2.45,12.23,2.45,53.8,0,56.24-2.45c2.45-2.45,0-4.89-12.23-9.78-12.23-4.89-25.68-13.45-30.57-18.34,0,0-9.78,0-7.34,7.34,0,0-2.27,0-16.62-1.09Z"/>
    <g>
      <path class="cls-12" d="M644.67,895.17c-39.45,36.61-101.11,34.32-137.73-5.13-36.62-39.45-34.32-101.11,5.13-137.73,39.45-36.62,101.11-34.32,137.73,5.13,36.61,39.45,34.32,101.11-5.13,137.73Z"/>
      <path class="cls-9" d="M657.32,766.64c9.08,33.79-.37,71.34-27.8,96.79-39.45,36.61-101.11,34.32-137.73-5.14-2.73-2.94-5.22-6.02-7.52-9.19,3.98,14.81,11.5,28.91,22.67,40.93,36.61,39.45,98.28,41.75,137.73,5.13,36.51-33.88,41.17-89.21,12.65-128.54Z"/>
      <path class="cls-28" d="M664.14,744.14c-43.96-47.37-118-50.13-165.37-6.17-47.37,43.96-50.13,118-6.16,165.37,43.96,47.37,118,50.13,165.37,6.17,47.37-43.96,50.13-118,6.17-165.37ZM506.95,890.04c-36.62-39.45-34.32-101.11,5.13-137.73,39.45-36.62,101.11-34.32,137.73,5.13,36.61,39.45,34.32,101.11-5.13,137.73-39.45,36.61-101.11,34.32-137.73-5.13Z"/>
      <path class="cls-9" d="M507.81,859.48c-11.43-4.57-18.37-14.08-15.51-21.24,2.86-7.16,14.3-13.81,24.8-1.98,7.79,8.78,19.46,11.37,16.6,18.53-2.86,7.16-14.45,9.26-25.88,4.69Z"/>
      <rect class="cls-29" x="409.31" y="924.37" width="105.96" height="24.35" transform="translate(-513.65 564.56) rotate(-42.86)"/>
      <path class="cls-29" d="M431.47,975.27l-10.09-10.88c-6.59-7.1-17.68-7.51-24.78-.92l-106.28,98.64c-7.1,6.59-7.51,17.68-.92,24.78l10.09,10.87c6.59,7.1,17.68,7.51,24.78.93l106.28-98.64c7.1-6.59,7.51-17.68.92-24.78Z"/>
    </g>
    <g>
      <path class="cls-93" d="M337.76,1064.03s5.22,3.03,9.14,7.26c3.92,4.23,7.61,10.64,16.91.06,9.37-10.66,4.16-13.69.59-12.35-3.57,1.34-8.43,3.89-11.38.71-2.94-3.17-9.46-5-9.46-5l-5.8,9.32Z"/>
      <path class="cls-99" d="M345.95,1053.85s-27.37-20.74-35.7-23.87c0,0,5.44-32.17,1.7-44.98-3.74-12.81-29.76-32.09-27.8-9.49s.59,59.14,11.41,70.81c10.82,11.67,27.8,9.49,42.78,22.73l7.61-15.2Z"/>
      <path class="cls-56" d="M295.56,1046.32c-10.82-11.67-9.44-48.22-11.41-70.81-.75-8.63,2.59-11.14,7.21-10.25-.02.08-.05.16-.06.24-2.96,18.07-6.9,65.26,11.32,74.07,12.35,5.97,28.34,18.63,37.38,26.17l-1.66,3.3c-14.99-13.23-31.96-11.06-42.78-22.73Z"/>
    </g>
    <g>
      <path class="cls-93" d="M359.26,892.91s-1.15,15.43-1.15,23.19,2.17,24.59-13.35,27.17c-15.52,2.59-24.38-5.05-30.09-8.35,0,0-18.64-16.24-16.06-21.41,2.59-5.17,5.17-20.7,20.7-20.7s39.96.09,39.96.09Z"/>
      <path class="cls-47" d="M315.42,935.5s-20.7-15.52-25.87-25.87c-5.17-10.35-5.17-18.11,0-23.28,0,0-5.17-5.17-7.76-5.17,0,0,7.76,0,10.35,2.59,0,0-2.59-7.76,0-10.35,0,0,0,5.17,2.59,7.76,0,0,7.76-23.28,23.28-20.7,15.52,2.59,41.39,15.52,46.57,12.93,0,0-2.59,2.59-7.76,2.59,0,0,7.76,2.59,15.52,2.59,0,0-2.59,12.93-23.28,18.11-20.7,5.17-36.22,2.59-36.22,2.59,0,0,5.17,18.11,2.59,25.87,0,0-5.17-10.35-10.35-10.35s0,7.76,2.59,10.35,10.35,10.35,7.76,10.35Z"/>
      <path class="cls-53" d="M311.53,920.01s36.66,3.32,46.53-6.64c0,0,3.29,6.64,0,16.61-3.29,9.97-9.87,16.61-19.74,16.61s-26.78-13.29-26.78-26.58Z"/>
    </g>
    <g>
      <path class="cls-50" d="M363.31,962.33c2.28,5.67,2.72,11.06,1.23,15.88-.08.26-.36.4-.62.31l-1.07-.36c-.25-.08-.39-.35-.31-.61,4.22-13.81-10.13-28.53-13.83-32.04-.47-.44-.5-1.18-.08-1.66l.28-.33c.18-.21.49-.23.69-.04,1.27,1.15,5.53,5.19,9.34,10.81,1.85,2.73,3.3,5.42,4.36,8.04Z"/>
      <path class="cls-1" d="M358.1,981.24c.83-1.69,2.53-2.66,4.3-2.63l.37-1.74c.11-.53.63-.86,1.16-.75l.13.03c.53.11.86.63.75,1.15l-.38,1.81c2.29,1.15,3.23,3.93,2.1,6.24-1.14,2.32-3.94,3.29-6.27,2.15-2.32-1.14-3.29-3.94-2.15-6.27Z"/>
      <path class="cls-59" d="M358.1,981.24c.83-1.69,2.53-2.66,4.3-2.63l.37-1.74c.11-.53.63-.86,1.16-.75l.13.03c.53.11.86.63.75,1.15l-.38,1.81c2.29,1.15,3.23,3.93,2.1,6.24-1.14,2.32-3.94,3.29-6.27,2.15-2.32-1.14-3.29-3.94-2.15-6.27Z"/>
      <path class="cls-76" d="M365.46,985.04c1.13-2.31.19-5.09-2.1-6.24l.38-1.81c.07-.32-.03-.64-.24-.86.13-.03.28-.04.42,0l.13.03c.53.11.86.63.75,1.15l-.38,1.81c2.29,1.15,3.23,3.93,2.1,6.24-1.1,2.26-3.78,3.23-6.06,2.25,2,.34,4.06-.65,5-2.56Z"/>
      <g>
        <path class="cls-96" d="M362.57,977.8l.11-.53v.51s-.08.01-.11.02Z"/>
        <path class="cls-96" d="M358.1,981.24c.4-.82,1.01-1.47,1.74-1.92-.53.57-.93,1.27-1.15,2.07-.73,2.66.84,5.41,3.5,6.14.6.16,1.2.21,1.78.16-1.17.44-2.51.42-3.72-.17-2.32-1.14-3.29-3.94-2.15-6.27Z"/>
      </g>
      <path class="cls-1" d="M360.63,982.48c.45-.93,1.58-1.31,2.5-.86.93.45,1.31,1.58.86,2.5s-1.58,1.31-2.5.86c-.93-.45-1.31-1.57-.86-2.5Z"/>
      <path class="cls-76" d="M360.81,982.57c.4-.83,1.4-1.17,2.22-.76.82.4,1.17,1.4.76,2.22-.4.83-1.4,1.17-2.22.76-.82-.4-1.17-1.4-.76-2.22Z"/>
    </g>
    <g>
      <path class="cls-79" d="M341.62,1008.86l.91,1.44.3-.23c.26-.2,2.5-2.2-.81-9.47-1.24-2.72-2.83-5.71-4.73-8.89l-.18-.31-1.45.94.17.29c1.86,3.11,3.41,6.03,4.62,8.69,2.07,4.54,1.6,6.37,1.34,6.92-.06.13-.04.27.05.38l.06.07-.28.18Z"/>
      <path class="cls-79" d="M318.07,1021.91h0c.21-.03.34-.23.29-.43l-.33-1.27-.31.08-.03-.34s-2.02-.05-4.37-5.78c-1.42-3.46-2.54-7.13-3.24-9.6l-.09-.32-1.69.39.1.35c.71,2.52,1.86,6.27,3.31,9.81,3.02,7.38,6.02,7.17,6.36,7.12Z"/>
      <path class="cls-50" d="M309.57,1007.73c.39.1.77.03,1.07-.2.33-.25.53-.67.55-1.14.02-.53-.09-1.11-.18-1.67-.08-.43-.15-.87-.18-1.29-.27-4.71-.59-10.58,8.8-14.65,4.57-1.98,8.67-1.75,12.21.69,2.63,1.81,4,4.27,4.02,4.3.24.45.63.78,1.07.9.35.1.7.05.99-.12.68-.41.86-1.38.41-2.21-.07-.13-1.75-3.22-5.09-5.57-1.96-1.38-4.09-2.23-6.34-2.52-2.74-.36-5.65.11-8.63,1.41-.1.04-.19.08-.29.13-.17.08-.33.15-.5.23h0c-10.28,4.82-9.88,11.97-9.59,17.18.05.97.18,1.89.37,2.75.23,1.03.67,1.63,1.32,1.8Z"/>
      <g>
        <path class="cls-50" d="M320.55,1017.36l-1.61.75c-1.1.51-1.56,1.85-1.04,2.99h0c.52,1.14,1.84,1.65,2.93,1.14l1.61-.75c1.1-.51,1.56-1.85,1.04-2.99h0c-.52-1.14-1.84-1.65-2.93-1.14Z"/>
        <path class="cls-50" d="M323.48,1018.49h0c.52,1.14.06,2.48-1.04,2.99l-1.61.75c-.62.29-1.31.25-1.89-.04-.27-.14-.23-.54.05-.64,1.22-.42,3.74-1.5,3.57-3.21,0-.03,0-.07,0-.1-.04-.34.39-.53.61-.27.12.15.23.32.31.5Z"/>
        <path class="cls-50" d="M321.49,1017.16c-2.58.91-3.79,2.72-3.79,2.72h0c.08-.75.53-1.43,1.24-1.77l1.61-.75c.3-.14.62-.21.94-.2h0Z"/>
      </g>
      <g>
        <path class="cls-50" d="M337.7,1008.84l1.62-.76c1.1-.52,2.47.09,3.05,1.36h0c.58,1.27.16,2.72-.94,3.23l-1.62.76c-1.1.52-2.47-.09-3.05-1.36h0c-.58-1.27-.16-2.71.94-3.23Z"/>
        <path class="cls-50" d="M336.76,1012.07h0c.58,1.27,1.95,1.88,3.05,1.36l1.62-.76c.65-.3,1.06-.93,1.17-1.66.04-.3-.28-.51-.53-.35-1.09.68-3.58,1.97-4.84.56-.02-.02-.04-.05-.06-.07-.23-.26-.68-.05-.61.29.04.21.11.42.21.62Z"/>
        <path class="cls-4" d="M336.95,1009.46c2.35-1.43,4.56-1.08,4.56-1.08h0c-.65-.49-1.48-.63-2.19-.29l-1.62.76c-.31.14-.56.36-.75.62h0Z"/>
      </g>
      <path class="cls-50" d="M313.6,941.02c.12-.15.97-.81,1.12-.68l.04.14-.94,5.14c-8.09,13.32,3.15,37.49,4.65,40.45.09.17.02.38-.15.47l-1.67.89c-.17.09-.39.03-.48-.15-.78-1.53-4.11-8.3-6.1-16.84-.92-3.96-1.41-7.71-1.46-11.21-.12-7.66,1.03-13.28,4.98-18.21Z"/>
    </g>
  </g>
  <g>
    <g>
      <path class="cls-46" d="M1440.3,1342.9s2.16,26.05,1.47,34.13l-51.93,10.43s-1.33-17.67,18.03-21.45c2.46-.48,4.68-2.25,6.12-4.97,3.25-6.17,9.09-16.63,11.38-16.83l14.94-1.32Z"/>
      <path class="cls-46" d="M1618.38,1346.91s7.29,23.94,7.14,32.09l-57.14,9.17s-4.51-14.27,15.97-21.05c2.6-.86,4.86-2.97,6.19-5.9,3.03-6.65,4.75-17.92,7.19-18.48l20.64,4.17Z"/>
      <path class="cls-39" d="M1451.82,1164.38s-62.86,51.73-65.24,83.62c-2.39,31.89,25.46,112.21,25.46,112.21l31.2-3.19-19.8-100.56s39.49-36.07,50.68-46.04c10.37-9.24,70.18,85.38,70.18,85.38l44.38,64.41,34.21-4.65c.24-.03.36-.39.22-.64-5.53-9.5-81.73-137.54-96.04-190.55h-75.24Z"/>
      <g>
        <path class="cls-33" d="M1517.19,1167.33h-68.84c2.14-1.84,3.47-2.95,3.47-2.95h75.24c14.32,53,90.51,181.05,96.05,190.55.15.25.02.6-.22.64l-10.19,1.38c-8.58-14.62-81.52-137.86-95.5-189.62Z"/>
        <path class="cls-33" d="M1432.99,1358.07l-19.43-98.66s39.49-36.07,50.69-46.04c1.24-1.1,3.2-.69,5.65.83-14.57,13.12-46.47,42.27-46.47,42.27l19.8,100.56-10.24,1.05Z"/>
      </g>
    </g>
    <path class="cls-95" d="M1502.17,993.06l-2.49-13.63-30.13-1.84-3.37,16.93s13.66,22.25,35.99-1.46Z"/>
    <g>
      <path class="cls-93" d="M1369.65,1052.6s-7.52-3.48-15.39-4.71c-7.87-1.24-19.98,5.93-15.23-11.55,4.79-17.62,13.36-10.77,17.11-8.19,5.65,3.89.59,4.05,6.5,4.98,5.9.93,13.07,6.65,13.07,6.65l-6.05,12.83Z"/>
      <path class="cls-99" d="M1438.85,999.79s-19.59,26.93-21.98,43.76c0,0-35.65-6.51-48.86-10.08,0,0-6.8,13.03-6.29,19.6,0,0,48.97,18.02,62.27,16.28,13.43-1.76,35.66-37.05,37.69-49.88,2.03-12.84-9.58-17.5-22.82-19.68Z"/>
      <path class="cls-56" d="M1361.71,1053.08c-.04-.51-.02-1.07.02-1.65,14.02,4.88,45.08,15.12,55.25,13.79,13.43-1.76,35.66-37.05,37.69-49.88.87-5.53-.79-9.54-4.02-12.49,7.46,2.96,12.39,7.91,11.01,16.64-2.03,12.84-24.26,48.12-37.69,49.88-13.29,1.74-62.27-16.28-62.27-16.28Z"/>
    </g>
    <path class="cls-31" d="M1440.94,1167.08c-21.15-128.2,25.8-177.67,25.8-177.67,11.93,12.91,36.56,1.59,36.56,1.59.57,1.09.63,1.53.26,2.28-54.83,110.37,11.26,150.31,22.7,158.92,3.99,3,7.31,8.72,9.89,14.88h-95.21Z"/>
    <path class="cls-7" d="M1491.32,1000.07l-14.13,7.75s-24.32,73.37,8.75,121.91l-4.93,26.89-20.18-18.39s-16.3-88.75,10.22-128.37c0,0-5.69-8.9-.31-15.46l20.58,5.66Z"/>
    <path class="cls-99" d="M1504.03,990.68s.24.03.69.09c1.26.18,2.51.41,3.73.68,7.15,2.47,26.09,10.99,29,32.76,3.6,26.92-6.39,86.12-2.3,104.64,4.07,18.4,21.35,49.13,20.73,74.88-11.12-1.46-38.62-6.28-47.28-19.02-7.71-11.33-11.2-44.78-18.11-69.92-1.25-3.21-2.37-6.52-3.3-9.95-16.29-59.87,16.84-114.17,16.84-114.17Z"/>
    <path class="cls-56" d="M1510.08,992.05c8.04,3.1,24.67,11.88,27.38,32.16,3.6,26.92-6.39,86.12-2.3,104.64,4.07,18.4,21.35,49.13,20.73,74.88,0,0,0,0,0,0-.33-.04-.67-.09-1.03-.14-.25-.04-.52-.07-.79-.11-.11-.02-.22-.03-.33-.05-.27-.04-.56-.08-.85-.13-.12-.02-.23-.03-.35-.05-.29-.04-.59-.09-.89-.14-.13-.02-.26-.04-.39-.06-.31-.05-.63-.1-.95-.16-.13-.02-.25-.04-.38-.06-.33-.06-.67-.11-1.01-.17-.13-.02-.26-.04-.38-.07-.35-.06-.7-.13-1.06-.19-.13-.02-.26-.05-.38-.07-.36-.07-.73-.14-1.11-.21-.13-.02-.26-.05-.38-.08-.38-.07-.77-.15-1.15-.23-.13-.03-.25-.05-.38-.08-.39-.08-.79-.17-1.19-.25-.13-.03-.25-.06-.38-.08-.41-.09-.82-.18-1.24-.27-.11-.03-.23-.05-.34-.08-.43-.1-.86-.2-1.3-.3-.1-.02-.2-.05-.29-.07-.45-.11-.91-.22-1.37-.34-.07-.02-.14-.04-.21-.05-.49-.12-.98-.25-1.47-.38-.03,0-.05-.02-.08-.02-3.24-.87-6.54-1.9-9.7-3.12-.03-.01-.06-.02-.09-.03-.45-.17-.89-.35-1.34-.53-.1-.04-.2-.08-.3-.12-.4-.17-.8-.34-1.2-.51-.14-.06-.28-.12-.42-.18-.37-.16-.74-.33-1.1-.5-.13-.06-.27-.12-.4-.19-1.96-.98-3.82-2.01-5.51-3.11,16.94,6.05,36.03,8.85,36.03,8.85-3.08-27.54-16.87-45.69-25.83-60.45-9.67-15.93-3.37-63.73,1.72-103.52.39-3.07.55-6.02.5-8.84-.26-14.46-7.45-27.37-18.47-35.58Z"/>
    <polygon class="cls-73" points="1505.72 990.63 1483.88 1009.07 1480.39 995.93 1497.91 990.9 1505.72 990.63"/>
    <path class="cls-73" d="M1466.74,989.41l12.82,6-12.12,14.23s-5.88-14.56-.7-20.23Z"/>
    <path class="cls-99" d="M1431.86,1030.74s1.13-9.37,2.67-21.99c.45-3.67,4.29-12.37,10.3-14.74,8.18-3.23,12.65-3.3,21.9-4.59,0,0-24.84,94.17-23.08,165.92,1.25,6.31,1.79,11.77.75,14.45,0,0-6.12,2.32-16.62,9.09-9.63,6.21,3.74-46.96,6-55.76-6.22-34.22-5.58-56.77-1.94-92.37Z"/>
    <g>
      <path class="cls-57" d="M1160.97,898.74l1.81-2.56-77.55-54.64c-1.36-.96-2.84-1.2-3.3-.54l-.12.17c-.47.66.26,1.97,1.61,2.93l77.55,54.64Z"/>
      <path class="cls-25" d="M1170.73,920.85l16.14-22.83-12.09-8.52c-3.28-2.31-7.69-1.71-9.85,1.34l-8.33,11.78c-2.16,3.05-1.24,7.4,2.04,9.71l12.09,8.52Z"/>
      <path class="cls-58" d="M1398.68,1110.32l43.04-60.89-218.91-154.25c-13.86-9.77-30.9-9.49-38.05.63l-17.15,24.26c-7.15,10.11-1.71,26.23,12.16,36l218.91,154.25Z"/>
      <path class="cls-82" d="M1219.52,893.12c1.1.66,2.2,1.31,3.28,2.07l218.91,154.24-23.61,33.41-210.59-148.38c-13.34-9.4-19.88-23.05-14.62-30.49l11.19-15.83c5.03.39,10.37,2.06,15.44,4.98Z"/>
      <path class="cls-70" d="M1222.8,895.19l86.84,61.18-43.32,60.69-86.55-60.99c-13.86-9.77-19.31-25.89-12.16-36l17.15-24.26c7.15-10.11,24.18-10.39,38.05-.63Z"/>
      <path class="cls-74" d="M1222.8,895.19l86.84,61.18-23.98,33.6-111.48-79.19,10.58-14.97c7.15-10.11,24.18-10.39,38.05-.63Z"/>
      <polygon class="cls-30" points="1298.87 948.8 1309.64 956.37 1266.35 1017.08 1255.66 1009.56 1298.87 948.8"/>
      <path class="cls-25" d="M1408.04,1132.15l58.02-80.75c2.39-3.32.35-8.79-4.55-12.21h0c-4.91-3.42-10.82-3.5-13.21-.17l-58.02,80.75c-2.39,3.33-.35,8.79,4.55,12.21h0c4.9,3.42,10.82,3.5,13.21.17Z"/>
      <g>
        <path class="cls-52" d="M1403.55,1022.55l-8.16,11.54c-1.25,1.77-3.76,2.15-5.6.85-1.84-1.3-2.33-3.79-1.08-5.56l8.16-11.54,6.68,4.71Z"/>
        <path class="cls-52" d="M1381.74,1007.18l-8.11,11.48c-1.25,1.77-3.76,2.15-5.6.85-1.84-1.3-2.33-3.79-1.08-5.56l8.11-11.48,6.68,4.71Z"/>
        <path class="cls-52" d="M1359.93,991.82l-8.07,11.42c-1.25,1.77-3.76,2.15-5.6.85-1.84-1.3-2.33-3.79-1.08-5.56l8.07-11.42,6.68,4.71Z"/>
        <path class="cls-52" d="M1338.12,976.45l-8.03,11.36c-1.25,1.77-3.76,2.15-5.6.85-1.84-1.3-2.33-3.79-1.08-5.56l8.03-11.36,6.68,4.71Z"/>
        <path class="cls-52" d="M1317.98,962.27l-7.98,11.29c-1.25,1.77-3.76,2.15-5.6.85-1.84-1.3-2.33-3.79-1.08-5.56l7.98-11.29,6.68,4.71Z"/>
        <path class="cls-52" d="M1294.5,945.72l-7.94,11.23c-1.25,1.77-3.76,2.15-5.6.85-1.84-1.3-2.33-3.79-1.08-5.56l7.94-11.23,6.68,4.71Z"/>
        <path class="cls-52" d="M1274.26,931.34l-7.94,11.23c-1.25,1.77-3.76,2.15-5.6.85-1.84-1.3-2.33-3.79-1.08-5.56l7.94-11.23,6.68,4.71Z"/>
        <path class="cls-52" d="M1254.03,916.96l-7.94,11.23c-1.25,1.77-3.76,2.15-5.6.85-1.84-1.3-2.33-3.79-1.08-5.56l7.94-11.23,6.68,4.71Z"/>
      </g>
      <path class="cls-21" d="M1376.31,1075.22h0c1.92-2.7,2.46-5.65,1.2-6.54l-142.49-100.9c-1.26-.9-3.87.58-5.79,3.29h0c-1.92,2.7-2.46,5.65-1.2,6.54l142.49,100.9c1.26.89,3.87-.58,5.79-3.29Z"/>
      <g>
        <g>
          <polygon class="cls-81" points="1548.84 1188.07 1562.37 1169.04 1446.08 1079.49 1425.77 1108.03 1548.84 1188.07"/>
          <path class="cls-57" d="M1425.77,1108.03s17.5-5.34,49.64,13.7c29.02,17.19,65.21,42.76,63.38,59.8l-113.03-73.5Z"/>
        </g>
        <path class="cls-52" d="M1434.79,1123.42l28.82-40.5c1.08-1.51.54-3.74-1.2-4.97l-10.12-7.17-32.72,45.98,10.12,7.17c1.74,1.23,4.03,1.01,5.1-.51Z"/>
        <path class="cls-57" d="M1543.33,1204.95l32.94-46.83c2.52-3.58,2.21-8.15-.7-10.21l-.31-.22c-2.9-2.06-7.29-.83-9.81,2.75l-32.94,46.83c-2.52,3.58-2.21,8.15.7,10.21l.31.22c2.9,2.06,7.29.83,9.81-2.75Z"/>
      </g>
    </g>
    <g>
      <path class="cls-93" d="M1450.07,1120.03s-6.87,2.47-12.47,6.66c-5.59,4.18-11.38,11.01-20.15-3.61-8.84-14.74-1.96-17.21,1.99-14.83,3.96,2.38,9.2,6.47,13.39,3.33,4.2-3.14,12.35-3.9,12.35-3.9l4.88,12.36Z"/>
      <path class="cls-99" d="M1442.53,1106.13s37.11-18.73,47.71-20.64c0,0,6.63-37.82,7.78-53.93,2.29-31.99,42.43-31.73,35.16-5.25-7.26,26.48-13.59,70.29-29.01,81.83-15.43,11.54-35.16,5.25-55.89,17.74l-5.75-19.75Z"/>
    </g>
    <path class="cls-93" d="M1456.28,937.13s1.15,15.38,1.15,23.11-2.16,24.5,13.31,27.08c15.47,2.58,24.3-5.03,29.99-8.32,0,0,18.58-16.18,16-21.34-2.58-5.16-5.16-20.62-20.62-20.62s-39.82.09-39.82.09Z"/>
    <path class="cls-47" d="M1499.96,979.57s20.62-15.47,25.78-25.78c5.16-10.31,5.16-18.05,0-23.2,0,0,5.16-5.16,7.73-5.16,0,0-7.73,0-10.31,2.58,0,0,2.58-7.73,0-10.31,0,0,0,5.16-2.58,7.73,0,0-7.73-23.2-23.2-20.62-15.47,2.58-41.25,15.47-46.41,12.89,0,0,2.58,2.58,7.73,2.58,0,0-7.73,2.58-15.47,2.58,0,0,2.58,12.89,23.2,18.05,20.62,5.16,36.09,2.58,36.09,2.58,0,0-5.16,18.05-2.58,25.78,0,0,5.16-10.31,10.31-10.31s0,7.73-2.58,10.31c-2.58,2.58-10.31,10.31-7.73,10.31Z"/>
    <path class="cls-53" d="M1503.84,964.14s-36.53,3.31-46.37-6.62c0,0-3.28,6.62,0,16.55,3.28,9.93,9.84,16.55,19.67,16.55s26.69-13.24,26.69-26.49Z"/>
    <path class="cls-32" d="M1456.34,969.1c-1.02-7.08,1.13-11.58,1.13-11.58,7.14,7.21,28.28,7.44,39.37,7.02-3.75,6.15-15.99,23.23-31.2,13.05-4.05-2.71-7.04-5.61-9.3-8.49Z"/>
  </g>
</svg>